<mxfile host="app.diagrams.net" modified="2023-02-05T16:15:16.519Z" agent="5.0 (Macintosh)" etag="BUGemqH58zru1C8MbHVP" version="20.8.13" type="github">
  <diagram name="Страница 1" id="QCF1RqW8EXYsG9CC2NEO">
    <mxGraphModel dx="1427" dy="669" grid="1" gridSize="10" guides="1" tooltips="1" connect="1" arrows="1" fold="1" page="1" pageScale="1" pageWidth="827" pageHeight="1169" math="0" shadow="0">
      <root>
        <mxCell id="0" />
        <mxCell id="1" parent="0" />
        <mxCell id="JYMPH2STM9JoLJSGxEeI-1" value="ESME" style="rounded=0;whiteSpace=wrap;html=1;" vertex="1" parent="1">
          <mxGeometry x="40" y="40" width="120" height="40" as="geometry" />
        </mxCell>
        <mxCell id="JYMPH2STM9JoLJSGxEeI-5" value="" style="shape=image;verticalLabelPosition=bottom;labelBackgroundColor=default;verticalAlign=top;aspect=fixed;imageAspect=0;image=data:image/jpeg,/9j/4AAQSkZJRgABAQAAAQABAAD//gA8Q1JFQVRPUjogZ2QtanBlZyB2MS4wICh1c2luZyBJSkcgSlBFRyB2NjIpLCBxdWFsaXR5ID0gMTAwCv/bAEMABQUFBQUFBQYGBQgIBwgICwoJCQoLEQwNDA0MERoQExAQExAaFxsWFRYbFykgHBwgKS8nJScvOTMzOUdER11dff/CAAsIAoACgAEBIQD/xAAdAAEBAQEBAAMBAQAAAAAAAAAACQcGCAMEBQIB/9oACAEBAAAAAPXYAAAAAAAAAAAAAAAAAAAAAAAAAAAAAAAAAAAAAAAAAAAAAAAAAAAAAAAAAAAAAAAAAAAAAAAAAAAAAAAAAAAAAAAAAAAAAAAAAAAAAAAAAAAAAAAAAAAAAAAAAAAAAAAAAAAAAAAAA/E814px3wAAAPl6vaPS/RgAAAAAAAHn/wAK/ggAAAP1vbXpgAAAAAAADzh4LejvTmi/YAAAfDwPmvzH8Ptj1cAAAAAAAHFS9+t799BgAAAMVnj9emWnAAAAAAADwp5i9e+ywB5s8ifyHqL1cAPKviHfKGAAAAAAAH8yc/FrH+4APIHjf/A9Ue4AB9STf062/eAAAAAAAfgSW0WoYAPpf4P9+6ACbuM1I0AAAAAAABykotVpmAAAACdWGU+0oAAAAAABykotVpmAAAACdWGU+0oAAAAAABykou99sgAAAA8d5bT7SgAAAAAAHKSiAAAAAFP9JAAAAAAAcpKLpd/AAAABhnHU/wBJAAAAAAAcpKLVaZgAAAAnVhlP9JAAAAAAAcpKLVaZgAAAAnVhlP8ASQAAAAAAHKSi1WmYAAAAJ1YZT/SQAAAAAAHKSi1WmYAAAAJ1YZT/AEkAAAAAABykotVpmAAAACdWGU/0kAAAAAABykotVpmAAAACdWGU/wBJAAAAAAAcpKLVaZgAAAAnVhlP9JAAAAAAAcpKLVaZgAAAAnVhlP8ASQAAAAAAHKSi1WmYAAAAJ1YZT/SQAAAAAAHKSi1WmYAAAAJ1YZT/AEkAAAAAABykotVpmAAAACdWGU/0kAAAAAABykotVpmAAAACdWGU/wBJAAAAAAAcpKLVaZgAAAAnVhlP9JAAAAAAAcpKLVaZgAAAAnVhlP8ASQAAAAAAHKSi1WmYAAAAJ1YZT/SQAAAAAAHKSi1WmYAAAAJ1YZT/AEkAAAAAABykotVpmAAAACdWGU/0kAAAAAABykotVpmAAAACdWGU/wBJAAAAAAAcpKLVaZgAAAAnVhlP9JAAAAAAAcpKLVaZgAAAAnVhlP8ASQAAAAAAHKSi1WmYAAAAJ1YZT/SQAAAAAAHKSi1WmYAAAAJ1YZT/AEkAAAAAABykotVpmAAAACdWGU/0kAAAAAABykotVpmAAAACdWGU/wBJAAAAAAAcpKLVaZgAAAAnVhlP9JAAAAAAAcpKLVaZgAAAAnVhlP8ASQAAAAAAHKSi1WmYAAAAJ1YZT/SQAAAAAAHKSi1WmYAAAAJ1YZT/AEkAAAAAABykotVpmAAAACdWGU/0kAAAAAABykotVpmAAAACdWGU/wBJAAAAAAAcpKLVaZgAAAAnVhlP9JAAAAAAAcpKLVaZgAAAAnVhlP8ASQAAAAAAHKSi1WmYAAAAJ1YZT/SQAAAAAAHKSi1WmYAAAAJ1YZT/AEkAAAAAABykou79ngAAAA8iZhT/AEkAAAAAABykogAAAABT/SQAAAAAAHKSi6b0CAAAADCuNp/pIAAAAAADlJRarTMAAAAE6sMp/pIAAAAAADlJRarTMAD6GJfDtv6oAE6sMp/pIAAAAAADlJRarTMAHMTY4V1VJO6ABOrDKf6SAAAAAAA5SUWq0zAB4d8s7P8AoYR6FoGACdWGU/0kAAAAAABzUnNOp0ACcmJU36GU+lU+ABOXEah6KAAAAAAA+GR/9Vq+0AHjvx32X2eE9Re5gA/yUnMVp/aAAAAAAAJ4YN7y9LAB9Cf2Ef5sVC/2wAwqdmsUwAAAAAAAGQTZ/bpZ3wAOP+LtQAcnNHkaE7+AAAAAAAHiPyn+97T9F/cAAAH18B8T8r6M9+AAAAAAAA/jxN5W/j9Pt/mAAAfHxf4/++kvdn2QAAAAAAAGReT8X/MAAAH3ti9VbcAAAAAAAAD+PwPjAAAf3+98oAAAAAAAAAAAAAAAAAAAAAAAAAAAAAAAAAAAAAAAAAAAAAAAAAAAAAAAAAAAAAAAAAAAAAAAAAAAAAAAAAAAAAAAAAAAAAAAAAAAAAAAAAAAAAAAAAAAAAAAAAAAA//EAC0QAAECBAUEAwACAwEBAAAAAAYFBwACAwQIEBg3UAEXNkAVFjAREhMUMZAg/9oACAEBAAEIAP8A06XiNCGLKa+WSjFGlW01SgNK2IJzVOaf/FWdBxLjr/NTuQfx3IP47kH8dyD+O5B/Hcg/juQfx3IP47kH8dyD+O5B/Hcg/juQfx3IP47kH8dyD+O5B/Hcg/juQfx3IP4pOa4VGb+0iU/rnpk0n8jGKW2qzUqJMNlw4XWnS7Q+TdZ80wK610hGICVdKVCooLXtJC0qoF9RUEpqX+syWegilHIvm73URtph5DqVJ6tSepUp056s8klMEw5EZDToXxCgMi26BJJ/S3Q0S0l6SW3xyfHxyfHxyfHxyfHxyfHxyfHxyfHxyfHxyfHxyfHxyfHxyfHxyfHxyfHxyfHxyfHxyfHxyfHxyfHxyfFZFR7mTrJXXWabdfkn/wA5xhpWkmnWvRa4t69nXrW9x0/npDCvFUVv8AkRce4RjagoqpLVdUUr1ZULxRvre3rXdejb27PsrYB1rbLC57Trs+lH9lVvLJSTb1Iv7tPv7e4rWlejcW7SnlM/EbS+qcdiZLZ1ImsRyhGGtvKdxPWM1H8n5dlUC/8ASQkGZzHEnm6zde5bhx3LcOO5bhx3LcOOjluHDDPAtEipMMEX5YkW8p36ZKY2EYeCyceO6CbV42eeWnJPPMWq86+TkCrPa21a9ube1oDKHbDKAkI1t+WJQAWL+9sCpN/5/wDWHACWZyOQsu/yv7G1U7G8sbsgSKyAuKyTXTr2sm39jfUEu9pqSan31PjCy6mshUlu5YaaykUXIDref8/+/wAxMmp003XrN8Wmx8Wmx8Wmx8Wmx0TE7p16denTp06dP46fm/tlJZukQ9ZIaq5nu24DKs3GHng5nkyW6Yf7+IrdBTyZ7bIM4088HM8mS3TD/fxFboKeTPbZBnGnng5nk2S8nDJ2OrKnqLa+NRbXxqLa+NRbXxqLa+NRbXxqLa+NRbXxqLa+NRbXxqLa+NRbXxqLa+NRbXxqLa+NRbXxqLa+NRbXxqLa+NRbXxqLa+NRbXxqLa+NRbXxqLa+NRbXxqLa+NRbXxqLa+NRbXw8JQkGJxfLCPDPbYhnGnng5nwbPbZBnGnng5nkIjlyXEaWg22lcpjSwUxpXKY0rlMaVymNK5TGlgpjSuUxpXKY0rlMaVymNLBTGlcpjSuUxpXKY0rlMaWCmNK5TGlcpjSuUxpXKY0sFMaVymNK5TGlcpjSuUxpYKY0rlMaVymNK5TByHXgIQ10O8hntsgzjTzwczyZLdMP9/EVugp5M9tkGcaeeDmeTJbph/v4it0FPJntsgzjTzwczyZLdMP9/EVugp5M9tkGcaeeDmeTJbph/v4it0FPJntsgzjTzwczyZLdMP8AfxFboKeTPbZBnGnng5nkyW6Yf7+IrdBTyZ7bIM4088HM8mS3TD/fxFboKeTPbZBnGnng5nkyW6Yf7+IrdBTyZ7bIM4088HM8mS3TD/fxFboKeTPbZBnGnng5nkyW6Yf7+IrdBTyZ7bIM4088HM8mS3TD/fxFboKeTPbZBnGnng5nkyW6Yf7+IrdBTyZ7bIM4088HM8mS3TD/AH8RW6Cnkz22QZxp54OZ5MlumH+/iK3QU8me2yDONPPBzPJkt0w/38RW6Cnkz22QZxp54OZ5MlumH+/iK3QU8me2yDONPPBzPJkt0w/38RW6Cnkz22QZxp54OZ5MlumH+/iK3QU8me2yDONPPBzPJkt0w/38RW6Cnkz22QZxp54OZ5MlumH+/iK3QU8me2yDONPPBzPJkt0w/wB/EVugp5M9tkGcaeeDmeTJbph/v4it0FPJntsgzjTzwczyZLdMP9/EVugp5M9tkGcaeeDmeTJbph/v4it0FPJntsgzjTzwczyZLdMP9/EVugp5M9tkGcaeeDmeTJbph/v4it0FPJntsgzjTzwczyZLdMP9/EVugp5M9tkGcaeeDmeTJbph/v4it0FPJntsgzjTzwczyZLdMP8AfxFboKeTPbZBnGnng5nkyW6Yf7+IrdBTyZ7bIM4088HM8mS3TD/fxFboKeTPbZBnGnng5nkyW6Yf7+IrdBTyZ7bIM4088HM8mS3TD/fxFboKeTPbZBnGnng5nkyW6Yf7+IrdBTyZ7bIM4088HM8m1X08WOB9aUtSbaRqTbSNSbaRqTbSNSbaRqTbSNSbaRqTbSNSbaRqTbSNSbaRqTbSNSbaRqTbSNSbaRqTbSNSbaRqTbSNSbaRqTbSNSbaRqTbSNSbaRqTbSNSbaRqTbSNSbaRqTbSNSbaRqTbSHeK0kzNr1ZSYZ7bIM4088HM+DZ7bIM4088HM8hAbuC8jS0G20qk0aVSaNKpNGlUmjSqTRpVJo0qk0aVSaNKpNGlUmjSqTRpVJo0qk0aVSaNKpNGlUmjSqTRpVJo0qk0aVSaNKpNGlUmjSqTRpVJo0qk0aVSaNKpNGlUmjSqTRpVJoOw67BCK4Q7uGe2yDONPPBzPJkt0w/38RW6Cnkz22QZxp54OZ5MlumH/spqqai2dW9UlXEi2ybV60qKbiWbm+qy066Muo5DZSXyR+uIrdBTyZ7bIM4088HM8mS3TD/1MSxLCh++W1I6PyE+Val6q5CZivhapSUkVvDpOcAct1a0/TEVugp5M9tkGcaeeDmeTJbph/64oCatdkSSO04bdliJw7edRkcRhiIETp1ajGG8mrI53KkzfpiK3QU8me2yDONNaU1cNLKMkM1XktnPDZ5/0xCSTyuqQdZoZi+Tb5tBX/QcC/TU4JKLhThn6daq5gb0pfpiFryVnRWpZIaOnNSbQMln4y5oS3NtcUJ1ewqJSqpp9VFU6qMrpinRsb23UrK0vrX88UIfW6zpBbbQKHhWE1qtVCLXIMTfpTkXIwyh9a/Irwor/nNNLJLNNMcLvQmLyJYlp0561SSlINpvRHHkJN47EMLzIB/dX0kYbzumtDkwvd/mqpdgtJ14mqDlsaRBlzcXqXk3bNFB3c0K046PJYqjWKOlfm/h3IJh9dOtoZYXnKXCQ6XXjnrBOpyG3ElpNLNJNNLMNkSoKLVispbeuEiuEiyX1j+is34Qu1Z6ykmNuBo9WWrY9OnSXp06dPzMzRDBkWuqqxqYKpyQXi0pRh9AZxQW6q19x7/tLOmXVwXocDxGtCqnQVEYExIDqxToWhPYqKeqUKdzYetdXdpY0Z690cYiRMekrWyEVmJAaqlRSW4YppqxYpUSBY6dOkvTp06cfVo0q9KpSrOywF2mT3K2HzSzSTdZZoTllWSKvSqm0Hgc23k/pJ3odCO9DoR3odCO9DoR3odCO9DoR3odCO9DoR3odCO9DoR3odCO9DoR3odCO9DoR3odCO9DoR3odCO9DoR3odCO9DoRWeJzq0nWSdUX11bn/uqR/wBhqmFUyepbK5LZ2don2tvaWfJHjLBpz1q3VQow7nyDPUnT1FHVUer/AIVH1rFNUFOt0o2IywDhkE9Oe5BGHDw2eleXHLVKVKtJNJVqiApXm6z1fpYfH0sPj6WHx9LD4+lh8fSw+PpYfH0sPj6WHx9LD4+lh8fSw+PpYfH0sPj6WHx9LD4+lh8fSw+PpYfH0sPiQPEqU3SeShb0Lan0p0P/ADs//8QARxAAAQIDBQMKAggBCwUBAAAAAgEDAAQFBhBUlLMRUJIhMUBBUVWTstHSEjATIjJCU2FxgRQVJDNEUmJjcpCRoSAjQ3N0ov/aAAgBAQAJPwD/AFOqoxJsdROlsUtnUKc5LFDcm1xM2v0TfAMVhqRBfuSrAD50JYtnVcyQxbGrZo4tjVs0cWxq2aOLY1bNHFsatmji2NWzRxbGrZo4tjVs0cWxq2aOLY1bNHFsatmji2NWzRxbGrZo4tjVs0cWxq2aOLY1bNHFsatmji2NWzRxbGrZo4tjVs0cWzq2ZNYr6TgJ9yaZA/QooCs9szI/XTwzirMTbafbEC+uG3qMV2KO9Ebnq3zH1syv+ftOKk7NzJ/eNeQU7AFOQU6XUHpSaaXaDrRfCv79qQrUpVC2AzN/YZmPYe8n0/lmYb2vPYRv3rBkZkqqREu1VVetVWAUzJUQRFNqqq9SQ+tIkj5UZ+BDmT9kWdanHk53p3a+vCX1Yo8kyPULbAAn/CJEhL+GMSEv4YxIS/hjEhL+GMSEv4YxIS/hjEhL+GMSEv4YxIS/hjEhL+GMSEv4YxIS/hjEhL+GMSEv4YxIS/hjEhL+GMSEv4YxIS/hjEhL+GMSEv4YxSZN0OsTYAk/5RYszLS7hczsmn8MSeHE6tTYHlWTdRAmB98MG080Sg42YqJCSc6Ki3TSlOCGynzbhcryfgn2nvDYTrYoEs1+I8fIIw+T01Muk664XKpEUNE686aA22CbSIi5ERIYbma84KEglsMJP8g7T7S6W23K15odrMxzI/8A3HoljYmpZwm3mj5CEhh0m3mjQ2zBdhCQ8qKiwYpUZbYxPAn4o/f/AEPd7v8ANqWyjjydr73tG5jaLREzTR873y3EaqM0yrz0zzqy1zCgRbitZ11ItxW8876xbit5531i3FbzzvrFuK3nnfWLb1rOu+sTKTT5Mk5JTa8jhfR8pAfy2Nk1JoLc+n4jHU5+oXObJOsiksaf43O1u5dgiiqv7csFtWcn33k/ISNVFP2SAU3n3BbbHtI12IkIn0UlLNtIvaqfaL91+XKOTLDcskvOA2KkbSByi5/1yjkvISjLoSxOCoq+48Kh9T5baOS8yybToL1iabFjlckpp1gl7foy2bYJReln23m17CbJCSOUJqWafD9HBQt2rsJilzjqL+YNEtybR/lAHPC2ufNkJdVVedWhiny3hDFPlvCGKfLeEMU+W8IYp8si7fwhjkT5nM+Mu9xNDd3YyHB9Xdvck/oFdiXNE+n4SV07sAPm3b3JP6BXYlzRPp+EldO7AD5t29yT+gVzhBJyjxm6QipKiK2QxU5vKnFTm8qcVObypxU5vKnFTm8qcVObypxU5vKnFTm8qcVObypxU5vKnFTm8qcVObypxU5vKnFTm8qcVObypxU5vKnFTm8qcVObypxU5vKnFTm8qcVObypxU5vKnFTm8qcVObypxU5vKnFTm8qcVObypxU5vKnFTm8qcVObypw6bkm4wwAkYKC7QG7AD5t29yT+gW48APm3b3JP6BXPtsvTrhADjm1RH4RUuXZFpKbwuRaSm8LkWkpvC5FpKbwuRaSm8LkWkpvC5FpKbwuRaSm8LkWkpvC5FpKbwuRaSm8LkWkpvC5FpKbwuRaSm8LkWkpvC5FpKbwuRaSm8LkWkpvC5FpKbwuRaSm8LkWkpvC5FpKbwuRaSm8LkWkpvC5FpKbwuRaSm8LkWkpvC5FpKbwuRaSm8LkWkpvC5E2zMPNNtmrjW1B2OJt67sAPm3b3JP6BXYlzRPp+EldO7AD5t29yT+gV2Jc0T6fhJXTuwA+bdvck/oFdiXNE+n4SV07sAPm3b3JP6BXYlzRPp+EldO7AD5t29yT+gV2Jc0T6fhJXTuwA+bdvck/oFdiXNE+n4SV07sAPm3b3JP6BXYlzRPp+EldO7AD5t29yT+gV2Jc0T6fhJXTuwA+bdvck/oFdiXNE+n4SV07sAPm3b3JP6BXYlzRPp+EldO7AD5t29yT+gV2Jc0T6fhJXTuwA+bdvck/oFdiXNE+n4SV07sAPm3b3JP6BXYlzRPp+EldO7AD5t29yT+gV2Jc0T6fhJXTuwA+bdvck/oFdiXNE+n4SV07sAPm3b3JP6BXYlzRPp+EldO7AD5t29yT+gV2Jc0T6fhJXTuwA+bdvck/oFdiXNE+n4SV07sAPm3b3JP6BXYlzRPp+EldO7AD5t29yT+gV2Jc0T6fhJXTuwA+bdvck/oFdiXNE+n4SV07sAPm3b3JP6BXYlzRPp+EldO7AD5t29yT+gV2Jc0T6fhJXTuwA+bdvck/oFdiXNE+n4SV07sAPm3b3JP6BXYlzRPp+EldO7AD5t29yT+gV2Jc0T6fhJXTuwA+bdvck/oFdiXNE+n4SV07sAPm3b3JP6BXYlzRPp+EldO7AD5t29yT+gV2Jc0T6fhJXTuwA+bdvck/oFdiXNE+n4SV07sAPm3b3JP6BXYlzRPp+EldO7AD5t29yT+gV2Jc0T6fhJXTuwA+bdvck/oFdiXNE+n4SV07sAPm3b3JP6BXYlzRPp+EldO7AD5t29yT+gVymkpKPGbqtj8RbCbIYdqOVh2o5WHajlYdqOVh2o5WHajlYdqOVh2o5WHajlYdqOVh2o5WHajlYdqOVh2o5WHajlYdqOVh2o5WHajlYdqOVh2o5WHajlYdqOVh2o5WHajlYdqOVh2o5WHajlYdqOVh2o5WHajlYV1ZRxhgBV0PgLaA3YAfNu3uSf0C3HgB827e5J/QK6YbZenXCAHHEVRH4RUuXZFqKbwOxaim8DsWopvA7FqKbwOxaim8DsWopvA7FqKbwOxaim8DsWopvA7FqKbwOxaim8DsWopvA7FqKbwOxaim8DsWopvA7FqKbwOxaim8DsWopvA7FqKbwOxaim8DsWopvA7FqKbwOxaim8DsWopvA7FqKbwOxaim8DsWopvA7FqKbwOxaim8DsWopvA7E2zMPNNtmrjSKgqjibeu7AD5t29yT+gV2Jc0T6fhJXTuwA+bdvck/oFdiXNE/nTzMpLN/bdeNABP3KHKhP9pyrHJ/u8TcDU5H+++wKh/uyZxUmJyWL/yMmhJ+i9nzsJK6d2AHzbt7kn9ArsS5on80/wDtMD9RtF+s64XILY/msTa/Qoa/w0oCr9CwHYPuvniZcFU+kb523hT7hj1pGxt5PqTUvt5WXfm4SV07sAPm3b3JP6BXYlzRP5rmxiQY+ndHtef9BumGqfS0NQSadBTVwh/DCJ5uqU5rkfdbbVpxr8yDaVzipK1dk2iHsdaRTBfm4SV07sAPm3b9pyjzwj+pMldjfg8QCD5qchsyahlwuINjEqjD4p1PhyHCh/CpTnwIS++pgoiH7qt32knxL9hRVX5vO0xKgXhIt3dwLxbt+y62QF+hJshFRyUmnmDRepWiUY5XJOZafFO1WyQocQ2JlkHmyTrA02p8xra2gfwc6ukV1Wclkd2K41sQ2j/UCisG8wBfEEuAo20hdvwjc0qStObJlgu1972h8wkQURVVV6kTrWC2hNzjpt/+tOQP+IHaRkginaqx/VJGXY8MEHdzeyVq7aTQL/iczlz38/pQ7WO1yVL2fMlgflJptWnmy5iEol3alRVJSB1tPjdYHseRPNfLHIUfbtcnXh2fEPYyn3liX+ilJUPhFOsl6zLtJfmP7KnVxJhrtBnmcO5vbLSTiT0x/kYVCTiLd7Xx1SQVZmS7T/tt/ukCqEiqiovVsh/6OalTQh7CTrEu0Vg0bmgREm5Mi2uMn7V6i+bZanzDpc7isihr+4xZOnNODzH9AJkn7lCbE7PmTKCKJsZYT+kfc6gBIP67n1Wmk+yy0P2WxuZUKlWEF1RLnaYH7Abwldsi+W2osAn9A5+L/kK6fOWmmuYh5iTrEx5iGASlz346bSlnPZE8xMsGiKLjLguCqL2KO3o800wyCKpOOmgCiJ2qWyNlYqHa2uyWD9T9sTxPuryNgnI20HUAD1JdLbKJJubWwNOSbd9iRyIibwaFxsxUTA0QhJFTYqKi9SxLE/Jcpv04eVxn82u0IRUJF2Ki9V1Um5Nz+3LPG0X+4KkWzn1T/EJHPOixbGc4W/bFsZzhb9sWxnOFv2xbGc4W/bFsZzhb9sWxnOFv2xbGc4W/bFsZzhb9sWxnOFv2xbGc4W/bFsZzhb9sWxnOFv2xbGc4W/bFsZzhb9sWxnOFv2xbGc4W/bFsZzhb9sWxnOFv2xbGc4W/bFsZzhb9sWzntnaCiHliszs6XbMvm751W9lySo/ITbH2X5r2BEs2xLMALbTTYoIAIps2Iibzl1kKmX9cldgqRdro8xxLtViV6jlV2O+GcU2ZlHP7L7RNr/8Aro8i/MuqvIDLZOFy/kMU8aVKrzuzpbC8NNpQC1WpDyo/MinwNl2tt73bEwXnE0Qk/dFizVMIu1ZVv2xZal5Vv0iy1LyrfpFlqXlW/SLLUvKt+kWWpeVb9IstS8q36RZal5Vv0iy1LyrfpFlqXlW/SLLUvKt+kWWpeVb9IstS8q36RZal5Vv0iy1LyrfpFlqXlW/SLLUvKt+kWWpeVb9IstS8q36RZal5Vv0iy1LyrfpFmaWhf/K17YYBptOYAFBH9tn+nb//2Q==;" vertex="1" parent="1">
          <mxGeometry x="747" width="80" height="80" as="geometry" />
        </mxCell>
        <mxCell id="JYMPH2STM9JoLJSGxEeI-6" value="" style="shape=image;verticalLabelPosition=bottom;labelBackgroundColor=default;verticalAlign=top;aspect=fixed;imageAspect=0;image=data:image/jpeg,/9j/4AAQSkZJRgABAQAAAQABAAD//gA8Q1JFQVRPUjogZ2QtanBlZyB2MS4wICh1c2luZyBJSkcgSlBFRyB2NjIpLCBxdWFsaXR5ID0gMTAwCv/bAEMABQUFBQUFBQYGBQgIBwgICwoJCQoLEQwNDA0MERoQExAQExAaFxsWFRYbFykgHBwgKS8nJScvOTMzOUdER11dff/CAAsIAoACgAEBIQD/xAAdAAEBAQEBAAMBAQAAAAAAAAAACQcGCAMEBQIB/9oACAEBAAAAAPXYAAAAAAAAAAAAAAAAAAAAAAAAAAAAAAAAAAAAAAAAAAAAAAAAAAAAAAAAAAAAAAAAAAAAAAAAAAAAAAAAAAAAAAAAAAAAAAAAAAAAAAAAAAAAAAAAAAAAAAAAAAAAAAAAAAAAAAAAA/E814px3wAAAPl6vaPS/RgAAAAAAAHn/wAK/ggAAAP1vbXpgAAAAAAADzh4LejvTmi/YAAAfDwPmvzH8Ptj1cAAAAAAAHFS9+t799BgAAAMVnj9emWnAAAAAAADwp5i9e+ywB5s8ifyHqL1cAPKviHfKGAAAAAAAH8yc/FrH+4APIHjf/A9Ue4AB9STf062/eAAAAAAAfgSW0WoYAPpf4P9+6ACbuM1I0AAAAAAABykotVpmAAAACdWGU+0oAAAAAABykotVpmAAAACdWGU+0oAAAAAABykou99sgAAAA8d5bT7SgAAAAAAHKSiAAAAAFP9JAAAAAAAcpKLpd/AAAABhnHU/wBJAAAAAAAcpKLVaZgAAAAnVhlP9JAAAAAAAcpKLVaZgAAAAnVhlP8ASQAAAAAAHKSi1WmYAAAAJ1YZT/SQAAAAAAHKSi1WmYAAAAJ1YZT/AEkAAAAAABykotVpmAAAACdWGU/0kAAAAAABykotVpmAAAACdWGU/wBJAAAAAAAcpKLVaZgAAAAnVhlP9JAAAAAAAcpKLVaZgAAAAnVhlP8ASQAAAAAAHKSi1WmYAAAAJ1YZT/SQAAAAAAHKSi1WmYAAAAJ1YZT/AEkAAAAAABykotVpmAAAACdWGU/0kAAAAAABykotVpmAAAACdWGU/wBJAAAAAAAcpKLVaZgAAAAnVhlP9JAAAAAAAcpKLVaZgAAAAnVhlP8ASQAAAAAAHKSi1WmYAAAAJ1YZT/SQAAAAAAHKSi1WmYAAAAJ1YZT/AEkAAAAAABykotVpmAAAACdWGU/0kAAAAAABykotVpmAAAACdWGU/wBJAAAAAAAcpKLVaZgAAAAnVhlP9JAAAAAAAcpKLVaZgAAAAnVhlP8ASQAAAAAAHKSi1WmYAAAAJ1YZT/SQAAAAAAHKSi1WmYAAAAJ1YZT/AEkAAAAAABykotVpmAAAACdWGU/0kAAAAAABykotVpmAAAACdWGU/wBJAAAAAAAcpKLVaZgAAAAnVhlP9JAAAAAAAcpKLVaZgAAAAnVhlP8ASQAAAAAAHKSi1WmYAAAAJ1YZT/SQAAAAAAHKSi1WmYAAAAJ1YZT/AEkAAAAAABykotVpmAAAACdWGU/0kAAAAAABykotVpmAAAACdWGU/wBJAAAAAAAcpKLVaZgAAAAnVhlP9JAAAAAAAcpKLVaZgAAAAnVhlP8ASQAAAAAAHKSi1WmYAAAAJ1YZT/SQAAAAAAHKSi1WmYAAAAJ1YZT/AEkAAAAAABykou79ngAAAA8iZhT/AEkAAAAAABykogAAAABT/SQAAAAAAHKSi6b0CAAAADCuNp/pIAAAAAADlJRarTMAAAAE6sMp/pIAAAAAADlJRarTMAD6GJfDtv6oAE6sMp/pIAAAAAADlJRarTMAHMTY4V1VJO6ABOrDKf6SAAAAAAA5SUWq0zAB4d8s7P8AoYR6FoGACdWGU/0kAAAAAABzUnNOp0ACcmJU36GU+lU+ABOXEah6KAAAAAAA+GR/9Vq+0AHjvx32X2eE9Re5gA/yUnMVp/aAAAAAAAJ4YN7y9LAB9Cf2Ef5sVC/2wAwqdmsUwAAAAAAAGQTZ/bpZ3wAOP+LtQAcnNHkaE7+AAAAAAAHiPyn+97T9F/cAAAH18B8T8r6M9+AAAAAAAA/jxN5W/j9Pt/mAAAfHxf4/++kvdn2QAAAAAAAGReT8X/MAAAH3ti9VbcAAAAAAAAD+PwPjAAAf3+98oAAAAAAAAAAAAAAAAAAAAAAAAAAAAAAAAAAAAAAAAAAAAAAAAAAAAAAAAAAAAAAAAAAAAAAAAAAAAAAAAAAAAAAAAAAAAAAAAAAAAAAAAAAAAAAAAAAAAAAAAAAAA//EAC0QAAECBAUEAwACAwEBAAAAAAYFBwACAwQIEBg3UAEXNkAVFjAREhMUMZAg/9oACAEBAAEIAP8A06XiNCGLKa+WSjFGlW01SgNK2IJzVOaf/FWdBxLjr/NTuQfx3IP47kH8dyD+O5B/Hcg/juQfx3IP47kH8dyD+O5B/Hcg/juQfx3IP47kH8dyD+O5B/Hcg/juQfx3IP4pOa4VGb+0iU/rnpk0n8jGKW2qzUqJMNlw4XWnS7Q+TdZ80wK610hGICVdKVCooLXtJC0qoF9RUEpqX+syWegilHIvm73URtph5DqVJ6tSepUp056s8klMEw5EZDToXxCgMi26BJJ/S3Q0S0l6SW3xyfHxyfHxyfHxyfHxyfHxyfHxyfHxyfHxyfHxyfHxyfHxyfHxyfHxyfHxyfHxyfHxyfHxyfHxyfHxyfFZFR7mTrJXXWabdfkn/wA5xhpWkmnWvRa4t69nXrW9x0/npDCvFUVv8AkRce4RjagoqpLVdUUr1ZULxRvre3rXdejb27PsrYB1rbLC57Trs+lH9lVvLJSTb1Iv7tPv7e4rWlejcW7SnlM/EbS+qcdiZLZ1ImsRyhGGtvKdxPWM1H8n5dlUC/8ASQkGZzHEnm6zde5bhx3LcOO5bhx3LcOOjluHDDPAtEipMMEX5YkW8p36ZKY2EYeCyceO6CbV42eeWnJPPMWq86+TkCrPa21a9ube1oDKHbDKAkI1t+WJQAWL+9sCpN/5/wDWHACWZyOQsu/yv7G1U7G8sbsgSKyAuKyTXTr2sm39jfUEu9pqSan31PjCy6mshUlu5YaaykUXIDref8/+/wAxMmp003XrN8Wmx8Wmx8Wmx8Wmx0TE7p16denTp06dP46fm/tlJZukQ9ZIaq5nu24DKs3GHng5nkyW6Yf7+IrdBTyZ7bIM4088HM8mS3TD/fxFboKeTPbZBnGnng5nk2S8nDJ2OrKnqLa+NRbXxqLa+NRbXxqLa+NRbXxqLa+NRbXxqLa+NRbXxqLa+NRbXxqLa+NRbXxqLa+NRbXxqLa+NRbXxqLa+NRbXxqLa+NRbXxqLa+NRbXxqLa+NRbXxqLa+NRbXxqLa+NRbXw8JQkGJxfLCPDPbYhnGnng5nwbPbZBnGnng5nkIjlyXEaWg22lcpjSwUxpXKY0rlMaVymNK5TGlgpjSuUxpXKY0rlMaVymNLBTGlcpjSuUxpXKY0rlMaWCmNK5TGlcpjSuUxpXKY0sFMaVymNK5TGlcpjSuUxpYKY0rlMaVymNK5TByHXgIQ10O8hntsgzjTzwczyZLdMP9/EVugp5M9tkGcaeeDmeTJbph/v4it0FPJntsgzjTzwczyZLdMP9/EVugp5M9tkGcaeeDmeTJbph/v4it0FPJntsgzjTzwczyZLdMP8AfxFboKeTPbZBnGnng5nkyW6Yf7+IrdBTyZ7bIM4088HM8mS3TD/fxFboKeTPbZBnGnng5nkyW6Yf7+IrdBTyZ7bIM4088HM8mS3TD/fxFboKeTPbZBnGnng5nkyW6Yf7+IrdBTyZ7bIM4088HM8mS3TD/fxFboKeTPbZBnGnng5nkyW6Yf7+IrdBTyZ7bIM4088HM8mS3TD/AH8RW6Cnkz22QZxp54OZ5MlumH+/iK3QU8me2yDONPPBzPJkt0w/38RW6Cnkz22QZxp54OZ5MlumH+/iK3QU8me2yDONPPBzPJkt0w/38RW6Cnkz22QZxp54OZ5MlumH+/iK3QU8me2yDONPPBzPJkt0w/38RW6Cnkz22QZxp54OZ5MlumH+/iK3QU8me2yDONPPBzPJkt0w/wB/EVugp5M9tkGcaeeDmeTJbph/v4it0FPJntsgzjTzwczyZLdMP9/EVugp5M9tkGcaeeDmeTJbph/v4it0FPJntsgzjTzwczyZLdMP9/EVugp5M9tkGcaeeDmeTJbph/v4it0FPJntsgzjTzwczyZLdMP9/EVugp5M9tkGcaeeDmeTJbph/v4it0FPJntsgzjTzwczyZLdMP8AfxFboKeTPbZBnGnng5nkyW6Yf7+IrdBTyZ7bIM4088HM8mS3TD/fxFboKeTPbZBnGnng5nkyW6Yf7+IrdBTyZ7bIM4088HM8mS3TD/fxFboKeTPbZBnGnng5nkyW6Yf7+IrdBTyZ7bIM4088HM8m1X08WOB9aUtSbaRqTbSNSbaRqTbSNSbaRqTbSNSbaRqTbSNSbaRqTbSNSbaRqTbSNSbaRqTbSNSbaRqTbSNSbaRqTbSNSbaRqTbSNSbaRqTbSNSbaRqTbSNSbaRqTbSNSbaRqTbSNSbaRqTbSHeK0kzNr1ZSYZ7bIM4088HM+DZ7bIM4088HM8hAbuC8jS0G20qk0aVSaNKpNGlUmjSqTRpVJo0qk0aVSaNKpNGlUmjSqTRpVJo0qk0aVSaNKpNGlUmjSqTRpVJo0qk0aVSaNKpNGlUmjSqTRpVJo0qk0aVSaNKpNGlUmjSqTRpVJoOw67BCK4Q7uGe2yDONPPBzPJkt0w/38RW6Cnkz22QZxp54OZ5MlumH/spqqai2dW9UlXEi2ybV60qKbiWbm+qy066Muo5DZSXyR+uIrdBTyZ7bIM4088HM8mS3TD/1MSxLCh++W1I6PyE+Val6q5CZivhapSUkVvDpOcAct1a0/TEVugp5M9tkGcaeeDmeTJbph/64oCatdkSSO04bdliJw7edRkcRhiIETp1ajGG8mrI53KkzfpiK3QU8me2yDONNaU1cNLKMkM1XktnPDZ5/0xCSTyuqQdZoZi+Tb5tBX/QcC/TU4JKLhThn6daq5gb0pfpiFryVnRWpZIaOnNSbQMln4y5oS3NtcUJ1ewqJSqpp9VFU6qMrpinRsb23UrK0vrX88UIfW6zpBbbQKHhWE1qtVCLXIMTfpTkXIwyh9a/Irwor/nNNLJLNNMcLvQmLyJYlp0561SSlINpvRHHkJN47EMLzIB/dX0kYbzumtDkwvd/mqpdgtJ14mqDlsaRBlzcXqXk3bNFB3c0K046PJYqjWKOlfm/h3IJh9dOtoZYXnKXCQ6XXjnrBOpyG3ElpNLNJNNLMNkSoKLVispbeuEiuEiyX1j+is34Qu1Z6ykmNuBo9WWrY9OnSXp06dPzMzRDBkWuqqxqYKpyQXi0pRh9AZxQW6q19x7/tLOmXVwXocDxGtCqnQVEYExIDqxToWhPYqKeqUKdzYetdXdpY0Z690cYiRMekrWyEVmJAaqlRSW4YppqxYpUSBY6dOkvTp06cfVo0q9KpSrOywF2mT3K2HzSzSTdZZoTllWSKvSqm0Hgc23k/pJ3odCO9DoR3odCO9DoR3odCO9DoR3odCO9DoR3odCO9DoR3odCO9DoR3odCO9DoR3odCO9DoR3odCO9DoR3odCO9DoRWeJzq0nWSdUX11bn/uqR/wBhqmFUyepbK5LZ2don2tvaWfJHjLBpz1q3VQow7nyDPUnT1FHVUer/AIVH1rFNUFOt0o2IywDhkE9Oe5BGHDw2eleXHLVKVKtJNJVqiApXm6z1fpYfH0sPj6WHx9LD4+lh8fSw+PpYfH0sPj6WHx9LD4+lh8fSw+PpYfH0sPj6WHx9LD4+lh8fSw+PpYfH0sPiQPEqU3SeShb0Lan0p0P/ADs//8QARxAAAQIDBQMKAggBCwUBAAAAAgEDAAQFBhBUlLMRUJIhMUBBUVWTstHSEjATIjJCU2FxgRQVJDNEUmJjcpCRoSAjQ3N0ov/aAAgBAQAJPwD/AFOqoxJsdROlsUtnUKc5LFDcm1xM2v0TfAMVhqRBfuSrAD50JYtnVcyQxbGrZo4tjVs0cWxq2aOLY1bNHFsatmji2NWzRxbGrZo4tjVs0cWxq2aOLY1bNHFsatmji2NWzRxbGrZo4tjVs0cWxq2aOLY1bNHFsatmji2NWzRxbGrZo4tjVs0cWzq2ZNYr6TgJ9yaZA/QooCs9szI/XTwzirMTbafbEC+uG3qMV2KO9Ebnq3zH1syv+ftOKk7NzJ/eNeQU7AFOQU6XUHpSaaXaDrRfCv79qQrUpVC2AzN/YZmPYe8n0/lmYb2vPYRv3rBkZkqqREu1VVetVWAUzJUQRFNqqq9SQ+tIkj5UZ+BDmT9kWdanHk53p3a+vCX1Yo8kyPULbAAn/CJEhL+GMSEv4YxIS/hjEhL+GMSEv4YxIS/hjEhL+GMSEv4YxIS/hjEhL+GMSEv4YxIS/hjEhL+GMSEv4YxIS/hjEhL+GMSEv4YxIS/hjEhL+GMSEv4YxSZN0OsTYAk/5RYszLS7hczsmn8MSeHE6tTYHlWTdRAmB98MG080Sg42YqJCSc6Ki3TSlOCGynzbhcryfgn2nvDYTrYoEs1+I8fIIw+T01Muk664XKpEUNE686aA22CbSIi5ERIYbma84KEglsMJP8g7T7S6W23K15odrMxzI/8A3HoljYmpZwm3mj5CEhh0m3mjQ2zBdhCQ8qKiwYpUZbYxPAn4o/f/AEPd7v8ANqWyjjydr73tG5jaLREzTR873y3EaqM0yrz0zzqy1zCgRbitZ11ItxW8876xbit5531i3FbzzvrFuK3nnfWLb1rOu+sTKTT5Mk5JTa8jhfR8pAfy2Nk1JoLc+n4jHU5+oXObJOsiksaf43O1u5dgiiqv7csFtWcn33k/ISNVFP2SAU3n3BbbHtI12IkIn0UlLNtIvaqfaL91+XKOTLDcskvOA2KkbSByi5/1yjkvISjLoSxOCoq+48Kh9T5baOS8yybToL1iabFjlckpp1gl7foy2bYJReln23m17CbJCSOUJqWafD9HBQt2rsJilzjqL+YNEtybR/lAHPC2ufNkJdVVedWhiny3hDFPlvCGKfLeEMU+W8IYp8si7fwhjkT5nM+Mu9xNDd3YyHB9Xdvck/oFdiXNE+n4SV07sAPm3b3JP6BXYlzRPp+EldO7AD5t29yT+gVzhBJyjxm6QipKiK2QxU5vKnFTm8qcVObypxU5vKnFTm8qcVObypxU5vKnFTm8qcVObypxU5vKnFTm8qcVObypxU5vKnFTm8qcVObypxU5vKnFTm8qcVObypxU5vKnFTm8qcVObypxU5vKnFTm8qcVObypxU5vKnFTm8qcVObypxU5vKnFTm8qcVObypw6bkm4wwAkYKC7QG7AD5t29yT+gW48APm3b3JP6BXPtsvTrhADjm1RH4RUuXZFpKbwuRaSm8LkWkpvC5FpKbwuRaSm8LkWkpvC5FpKbwuRaSm8LkWkpvC5FpKbwuRaSm8LkWkpvC5FpKbwuRaSm8LkWkpvC5FpKbwuRaSm8LkWkpvC5FpKbwuRaSm8LkWkpvC5FpKbwuRaSm8LkWkpvC5FpKbwuRaSm8LkWkpvC5FpKbwuRaSm8LkWkpvC5E2zMPNNtmrjW1B2OJt67sAPm3b3JP6BXYlzRPp+EldO7AD5t29yT+gV2Jc0T6fhJXTuwA+bdvck/oFdiXNE+n4SV07sAPm3b3JP6BXYlzRPp+EldO7AD5t29yT+gV2Jc0T6fhJXTuwA+bdvck/oFdiXNE+n4SV07sAPm3b3JP6BXYlzRPp+EldO7AD5t29yT+gV2Jc0T6fhJXTuwA+bdvck/oFdiXNE+n4SV07sAPm3b3JP6BXYlzRPp+EldO7AD5t29yT+gV2Jc0T6fhJXTuwA+bdvck/oFdiXNE+n4SV07sAPm3b3JP6BXYlzRPp+EldO7AD5t29yT+gV2Jc0T6fhJXTuwA+bdvck/oFdiXNE+n4SV07sAPm3b3JP6BXYlzRPp+EldO7AD5t29yT+gV2Jc0T6fhJXTuwA+bdvck/oFdiXNE+n4SV07sAPm3b3JP6BXYlzRPp+EldO7AD5t29yT+gV2Jc0T6fhJXTuwA+bdvck/oFdiXNE+n4SV07sAPm3b3JP6BXYlzRPp+EldO7AD5t29yT+gV2Jc0T6fhJXTuwA+bdvck/oFdiXNE+n4SV07sAPm3b3JP6BXYlzRPp+EldO7AD5t29yT+gV2Jc0T6fhJXTuwA+bdvck/oFdiXNE+n4SV07sAPm3b3JP6BXYlzRPp+EldO7AD5t29yT+gV2Jc0T6fhJXTuwA+bdvck/oFdiXNE+n4SV07sAPm3b3JP6BXYlzRPp+EldO7AD5t29yT+gV2Jc0T6fhJXTuwA+bdvck/oFdiXNE+n4SV07sAPm3b3JP6BXYlzRPp+EldO7AD5t29yT+gVymkpKPGbqtj8RbCbIYdqOVh2o5WHajlYdqOVh2o5WHajlYdqOVh2o5WHajlYdqOVh2o5WHajlYdqOVh2o5WHajlYdqOVh2o5WHajlYdqOVh2o5WHajlYdqOVh2o5WHajlYdqOVh2o5WHajlYdqOVh2o5WHajlYV1ZRxhgBV0PgLaA3YAfNu3uSf0C3HgB827e5J/QK6YbZenXCAHHEVRH4RUuXZFqKbwOxaim8DsWopvA7FqKbwOxaim8DsWopvA7FqKbwOxaim8DsWopvA7FqKbwOxaim8DsWopvA7FqKbwOxaim8DsWopvA7FqKbwOxaim8DsWopvA7FqKbwOxaim8DsWopvA7FqKbwOxaim8DsWopvA7FqKbwOxaim8DsWopvA7FqKbwOxaim8DsWopvA7E2zMPNNtmrjSKgqjibeu7AD5t29yT+gV2Jc0T6fhJXTuwA+bdvck/oFdiXNE/nTzMpLN/bdeNABP3KHKhP9pyrHJ/u8TcDU5H+++wKh/uyZxUmJyWL/yMmhJ+i9nzsJK6d2AHzbt7kn9ArsS5on80/wDtMD9RtF+s64XILY/msTa/Qoa/w0oCr9CwHYPuvniZcFU+kb523hT7hj1pGxt5PqTUvt5WXfm4SV07sAPm3b3JP6BXYlzRP5rmxiQY+ndHtef9BumGqfS0NQSadBTVwh/DCJ5uqU5rkfdbbVpxr8yDaVzipK1dk2iHsdaRTBfm4SV07sAPm3b9pyjzwj+pMldjfg8QCD5qchsyahlwuINjEqjD4p1PhyHCh/CpTnwIS++pgoiH7qt32knxL9hRVX5vO0xKgXhIt3dwLxbt+y62QF+hJshFRyUmnmDRepWiUY5XJOZafFO1WyQocQ2JlkHmyTrA02p8xra2gfwc6ukV1Wclkd2K41sQ2j/UCisG8wBfEEuAo20hdvwjc0qStObJlgu1972h8wkQURVVV6kTrWC2hNzjpt/+tOQP+IHaRkginaqx/VJGXY8MEHdzeyVq7aTQL/iczlz38/pQ7WO1yVL2fMlgflJptWnmy5iEol3alRVJSB1tPjdYHseRPNfLHIUfbtcnXh2fEPYyn3liX+ilJUPhFOsl6zLtJfmP7KnVxJhrtBnmcO5vbLSTiT0x/kYVCTiLd7Xx1SQVZmS7T/tt/ukCqEiqiovVsh/6OalTQh7CTrEu0Vg0bmgREm5Mi2uMn7V6i+bZanzDpc7isihr+4xZOnNODzH9AJkn7lCbE7PmTKCKJsZYT+kfc6gBIP67n1Wmk+yy0P2WxuZUKlWEF1RLnaYH7Abwldsi+W2osAn9A5+L/kK6fOWmmuYh5iTrEx5iGASlz346bSlnPZE8xMsGiKLjLguCqL2KO3o800wyCKpOOmgCiJ2qWyNlYqHa2uyWD9T9sTxPuryNgnI20HUAD1JdLbKJJubWwNOSbd9iRyIibwaFxsxUTA0QhJFTYqKi9SxLE/Jcpv04eVxn82u0IRUJF2Ki9V1Um5Nz+3LPG0X+4KkWzn1T/EJHPOixbGc4W/bFsZzhb9sWxnOFv2xbGc4W/bFsZzhb9sWxnOFv2xbGc4W/bFsZzhb9sWxnOFv2xbGc4W/bFsZzhb9sWxnOFv2xbGc4W/bFsZzhb9sWxnOFv2xbGc4W/bFsZzhb9sWxnOFv2xbGc4W/bFsZzhb9sWzntnaCiHliszs6XbMvm751W9lySo/ITbH2X5r2BEs2xLMALbTTYoIAIps2Iibzl1kKmX9cldgqRdro8xxLtViV6jlV2O+GcU2ZlHP7L7RNr/8Aro8i/MuqvIDLZOFy/kMU8aVKrzuzpbC8NNpQC1WpDyo/MinwNl2tt73bEwXnE0Qk/dFizVMIu1ZVv2xZal5Vv0iy1LyrfpFlqXlW/SLLUvKt+kWWpeVb9IstS8q36RZal5Vv0iy1LyrfpFlqXlW/SLLUvKt+kWWpeVb9IstS8q36RZal5Vv0iy1LyrfpFlqXlW/SLLUvKt+kWWpeVb9IstS8q36RZal5Vv0iy1LyrfpFmaWhf/K17YYBptOYAFBH9tn+nb//2Q==;" vertex="1" parent="1">
          <mxGeometry x="747" y="160" width="80" height="80" as="geometry" />
        </mxCell>
        <mxCell id="JYMPH2STM9JoLJSGxEeI-7" value="" style="shape=image;verticalLabelPosition=bottom;labelBackgroundColor=default;verticalAlign=top;aspect=fixed;imageAspect=0;image=data:image/jpeg,/9j/4AAQSkZJRgABAQAAAQABAAD//gA8Q1JFQVRPUjogZ2QtanBlZyB2MS4wICh1c2luZyBJSkcgSlBFRyB2NjIpLCBxdWFsaXR5ID0gMTAwCv/bAEMABQUFBQUFBQYGBQgIBwgICwoJCQoLEQwNDA0MERoQExAQExAaFxsWFRYbFykgHBwgKS8nJScvOTMzOUdER11dff/CAAsIAoACgAEBIQD/xAAdAAEBAQEBAAMBAQAAAAAAAAAACQcGCAMEBQIB/9oACAEBAAAAAPXYAAAAAAAAAAAAAAAAAAAAAAAAAAAAAAAAAAAAAAAAAAAAAAAAAAAAAAAAAAAAAAAAAAAAAAAAAAAAAAAAAAAAAAAAAAAAAAAAAAAAAAAAAAAAAAAAAAAAAAAAAAAAAAAAAAAAAAAAA/E814px3wAAAPl6vaPS/RgAAAAAAAHn/wAK/ggAAAP1vbXpgAAAAAAADzh4LejvTmi/YAAAfDwPmvzH8Ptj1cAAAAAAAHFS9+t799BgAAAMVnj9emWnAAAAAAADwp5i9e+ywB5s8ifyHqL1cAPKviHfKGAAAAAAAH8yc/FrH+4APIHjf/A9Ue4AB9STf062/eAAAAAAAfgSW0WoYAPpf4P9+6ACbuM1I0AAAAAAABykotVpmAAAACdWGU+0oAAAAAABykotVpmAAAACdWGU+0oAAAAAABykou99sgAAAA8d5bT7SgAAAAAAHKSiAAAAAFP9JAAAAAAAcpKLpd/AAAABhnHU/wBJAAAAAAAcpKLVaZgAAAAnVhlP9JAAAAAAAcpKLVaZgAAAAnVhlP8ASQAAAAAAHKSi1WmYAAAAJ1YZT/SQAAAAAAHKSi1WmYAAAAJ1YZT/AEkAAAAAABykotVpmAAAACdWGU/0kAAAAAABykotVpmAAAACdWGU/wBJAAAAAAAcpKLVaZgAAAAnVhlP9JAAAAAAAcpKLVaZgAAAAnVhlP8ASQAAAAAAHKSi1WmYAAAAJ1YZT/SQAAAAAAHKSi1WmYAAAAJ1YZT/AEkAAAAAABykotVpmAAAACdWGU/0kAAAAAABykotVpmAAAACdWGU/wBJAAAAAAAcpKLVaZgAAAAnVhlP9JAAAAAAAcpKLVaZgAAAAnVhlP8ASQAAAAAAHKSi1WmYAAAAJ1YZT/SQAAAAAAHKSi1WmYAAAAJ1YZT/AEkAAAAAABykotVpmAAAACdWGU/0kAAAAAABykotVpmAAAACdWGU/wBJAAAAAAAcpKLVaZgAAAAnVhlP9JAAAAAAAcpKLVaZgAAAAnVhlP8ASQAAAAAAHKSi1WmYAAAAJ1YZT/SQAAAAAAHKSi1WmYAAAAJ1YZT/AEkAAAAAABykotVpmAAAACdWGU/0kAAAAAABykotVpmAAAACdWGU/wBJAAAAAAAcpKLVaZgAAAAnVhlP9JAAAAAAAcpKLVaZgAAAAnVhlP8ASQAAAAAAHKSi1WmYAAAAJ1YZT/SQAAAAAAHKSi1WmYAAAAJ1YZT/AEkAAAAAABykotVpmAAAACdWGU/0kAAAAAABykotVpmAAAACdWGU/wBJAAAAAAAcpKLVaZgAAAAnVhlP9JAAAAAAAcpKLVaZgAAAAnVhlP8ASQAAAAAAHKSi1WmYAAAAJ1YZT/SQAAAAAAHKSi1WmYAAAAJ1YZT/AEkAAAAAABykou79ngAAAA8iZhT/AEkAAAAAABykogAAAABT/SQAAAAAAHKSi6b0CAAAADCuNp/pIAAAAAADlJRarTMAAAAE6sMp/pIAAAAAADlJRarTMAD6GJfDtv6oAE6sMp/pIAAAAAADlJRarTMAHMTY4V1VJO6ABOrDKf6SAAAAAAA5SUWq0zAB4d8s7P8AoYR6FoGACdWGU/0kAAAAAABzUnNOp0ACcmJU36GU+lU+ABOXEah6KAAAAAAA+GR/9Vq+0AHjvx32X2eE9Re5gA/yUnMVp/aAAAAAAAJ4YN7y9LAB9Cf2Ef5sVC/2wAwqdmsUwAAAAAAAGQTZ/bpZ3wAOP+LtQAcnNHkaE7+AAAAAAAHiPyn+97T9F/cAAAH18B8T8r6M9+AAAAAAAA/jxN5W/j9Pt/mAAAfHxf4/++kvdn2QAAAAAAAGReT8X/MAAAH3ti9VbcAAAAAAAAD+PwPjAAAf3+98oAAAAAAAAAAAAAAAAAAAAAAAAAAAAAAAAAAAAAAAAAAAAAAAAAAAAAAAAAAAAAAAAAAAAAAAAAAAAAAAAAAAAAAAAAAAAAAAAAAAAAAAAAAAAAAAAAAAAAAAAAAAA//EAC0QAAECBAUEAwACAwEBAAAAAAYFBwACAwQIEBg3UAEXNkAVFjAREhMUMZAg/9oACAEBAAEIAP8A06XiNCGLKa+WSjFGlW01SgNK2IJzVOaf/FWdBxLjr/NTuQfx3IP47kH8dyD+O5B/Hcg/juQfx3IP47kH8dyD+O5B/Hcg/juQfx3IP47kH8dyD+O5B/Hcg/juQfx3IP4pOa4VGb+0iU/rnpk0n8jGKW2qzUqJMNlw4XWnS7Q+TdZ80wK610hGICVdKVCooLXtJC0qoF9RUEpqX+syWegilHIvm73URtph5DqVJ6tSepUp056s8klMEw5EZDToXxCgMi26BJJ/S3Q0S0l6SW3xyfHxyfHxyfHxyfHxyfHxyfHxyfHxyfHxyfHxyfHxyfHxyfHxyfHxyfHxyfHxyfHxyfHxyfHxyfHxyfFZFR7mTrJXXWabdfkn/wA5xhpWkmnWvRa4t69nXrW9x0/npDCvFUVv8AkRce4RjagoqpLVdUUr1ZULxRvre3rXdejb27PsrYB1rbLC57Trs+lH9lVvLJSTb1Iv7tPv7e4rWlejcW7SnlM/EbS+qcdiZLZ1ImsRyhGGtvKdxPWM1H8n5dlUC/8ASQkGZzHEnm6zde5bhx3LcOO5bhx3LcOOjluHDDPAtEipMMEX5YkW8p36ZKY2EYeCyceO6CbV42eeWnJPPMWq86+TkCrPa21a9ube1oDKHbDKAkI1t+WJQAWL+9sCpN/5/wDWHACWZyOQsu/yv7G1U7G8sbsgSKyAuKyTXTr2sm39jfUEu9pqSan31PjCy6mshUlu5YaaykUXIDref8/+/wAxMmp003XrN8Wmx8Wmx8Wmx8Wmx0TE7p16denTp06dP46fm/tlJZukQ9ZIaq5nu24DKs3GHng5nkyW6Yf7+IrdBTyZ7bIM4088HM8mS3TD/fxFboKeTPbZBnGnng5nk2S8nDJ2OrKnqLa+NRbXxqLa+NRbXxqLa+NRbXxqLa+NRbXxqLa+NRbXxqLa+NRbXxqLa+NRbXxqLa+NRbXxqLa+NRbXxqLa+NRbXxqLa+NRbXxqLa+NRbXxqLa+NRbXxqLa+NRbXxqLa+NRbXw8JQkGJxfLCPDPbYhnGnng5nwbPbZBnGnng5nkIjlyXEaWg22lcpjSwUxpXKY0rlMaVymNK5TGlgpjSuUxpXKY0rlMaVymNLBTGlcpjSuUxpXKY0rlMaWCmNK5TGlcpjSuUxpXKY0sFMaVymNK5TGlcpjSuUxpYKY0rlMaVymNK5TByHXgIQ10O8hntsgzjTzwczyZLdMP9/EVugp5M9tkGcaeeDmeTJbph/v4it0FPJntsgzjTzwczyZLdMP9/EVugp5M9tkGcaeeDmeTJbph/v4it0FPJntsgzjTzwczyZLdMP8AfxFboKeTPbZBnGnng5nkyW6Yf7+IrdBTyZ7bIM4088HM8mS3TD/fxFboKeTPbZBnGnng5nkyW6Yf7+IrdBTyZ7bIM4088HM8mS3TD/fxFboKeTPbZBnGnng5nkyW6Yf7+IrdBTyZ7bIM4088HM8mS3TD/fxFboKeTPbZBnGnng5nkyW6Yf7+IrdBTyZ7bIM4088HM8mS3TD/AH8RW6Cnkz22QZxp54OZ5MlumH+/iK3QU8me2yDONPPBzPJkt0w/38RW6Cnkz22QZxp54OZ5MlumH+/iK3QU8me2yDONPPBzPJkt0w/38RW6Cnkz22QZxp54OZ5MlumH+/iK3QU8me2yDONPPBzPJkt0w/38RW6Cnkz22QZxp54OZ5MlumH+/iK3QU8me2yDONPPBzPJkt0w/wB/EVugp5M9tkGcaeeDmeTJbph/v4it0FPJntsgzjTzwczyZLdMP9/EVugp5M9tkGcaeeDmeTJbph/v4it0FPJntsgzjTzwczyZLdMP9/EVugp5M9tkGcaeeDmeTJbph/v4it0FPJntsgzjTzwczyZLdMP9/EVugp5M9tkGcaeeDmeTJbph/v4it0FPJntsgzjTzwczyZLdMP8AfxFboKeTPbZBnGnng5nkyW6Yf7+IrdBTyZ7bIM4088HM8mS3TD/fxFboKeTPbZBnGnng5nkyW6Yf7+IrdBTyZ7bIM4088HM8mS3TD/fxFboKeTPbZBnGnng5nkyW6Yf7+IrdBTyZ7bIM4088HM8m1X08WOB9aUtSbaRqTbSNSbaRqTbSNSbaRqTbSNSbaRqTbSNSbaRqTbSNSbaRqTbSNSbaRqTbSNSbaRqTbSNSbaRqTbSNSbaRqTbSNSbaRqTbSNSbaRqTbSNSbaRqTbSNSbaRqTbSNSbaRqTbSHeK0kzNr1ZSYZ7bIM4088HM+DZ7bIM4088HM8hAbuC8jS0G20qk0aVSaNKpNGlUmjSqTRpVJo0qk0aVSaNKpNGlUmjSqTRpVJo0qk0aVSaNKpNGlUmjSqTRpVJo0qk0aVSaNKpNGlUmjSqTRpVJo0qk0aVSaNKpNGlUmjSqTRpVJoOw67BCK4Q7uGe2yDONPPBzPJkt0w/38RW6Cnkz22QZxp54OZ5MlumH/spqqai2dW9UlXEi2ybV60qKbiWbm+qy066Muo5DZSXyR+uIrdBTyZ7bIM4088HM8mS3TD/1MSxLCh++W1I6PyE+Val6q5CZivhapSUkVvDpOcAct1a0/TEVugp5M9tkGcaeeDmeTJbph/64oCatdkSSO04bdliJw7edRkcRhiIETp1ajGG8mrI53KkzfpiK3QU8me2yDONNaU1cNLKMkM1XktnPDZ5/0xCSTyuqQdZoZi+Tb5tBX/QcC/TU4JKLhThn6daq5gb0pfpiFryVnRWpZIaOnNSbQMln4y5oS3NtcUJ1ewqJSqpp9VFU6qMrpinRsb23UrK0vrX88UIfW6zpBbbQKHhWE1qtVCLXIMTfpTkXIwyh9a/Irwor/nNNLJLNNMcLvQmLyJYlp0561SSlINpvRHHkJN47EMLzIB/dX0kYbzumtDkwvd/mqpdgtJ14mqDlsaRBlzcXqXk3bNFB3c0K046PJYqjWKOlfm/h3IJh9dOtoZYXnKXCQ6XXjnrBOpyG3ElpNLNJNNLMNkSoKLVispbeuEiuEiyX1j+is34Qu1Z6ykmNuBo9WWrY9OnSXp06dPzMzRDBkWuqqxqYKpyQXi0pRh9AZxQW6q19x7/tLOmXVwXocDxGtCqnQVEYExIDqxToWhPYqKeqUKdzYetdXdpY0Z690cYiRMekrWyEVmJAaqlRSW4YppqxYpUSBY6dOkvTp06cfVo0q9KpSrOywF2mT3K2HzSzSTdZZoTllWSKvSqm0Hgc23k/pJ3odCO9DoR3odCO9DoR3odCO9DoR3odCO9DoR3odCO9DoR3odCO9DoR3odCO9DoR3odCO9DoR3odCO9DoR3odCO9DoRWeJzq0nWSdUX11bn/uqR/wBhqmFUyepbK5LZ2don2tvaWfJHjLBpz1q3VQow7nyDPUnT1FHVUer/AIVH1rFNUFOt0o2IywDhkE9Oe5BGHDw2eleXHLVKVKtJNJVqiApXm6z1fpYfH0sPj6WHx9LD4+lh8fSw+PpYfH0sPj6WHx9LD4+lh8fSw+PpYfH0sPj6WHx9LD4+lh8fSw+PpYfH0sPiQPEqU3SeShb0Lan0p0P/ADs//8QARxAAAQIDBQMKAggBCwUBAAAAAgEDAAQFBhBUlLMRUJIhMUBBUVWTstHSEjATIjJCU2FxgRQVJDNEUmJjcpCRoSAjQ3N0ov/aAAgBAQAJPwD/AFOqoxJsdROlsUtnUKc5LFDcm1xM2v0TfAMVhqRBfuSrAD50JYtnVcyQxbGrZo4tjVs0cWxq2aOLY1bNHFsatmji2NWzRxbGrZo4tjVs0cWxq2aOLY1bNHFsatmji2NWzRxbGrZo4tjVs0cWxq2aOLY1bNHFsatmji2NWzRxbGrZo4tjVs0cWzq2ZNYr6TgJ9yaZA/QooCs9szI/XTwzirMTbafbEC+uG3qMV2KO9Ebnq3zH1syv+ftOKk7NzJ/eNeQU7AFOQU6XUHpSaaXaDrRfCv79qQrUpVC2AzN/YZmPYe8n0/lmYb2vPYRv3rBkZkqqREu1VVetVWAUzJUQRFNqqq9SQ+tIkj5UZ+BDmT9kWdanHk53p3a+vCX1Yo8kyPULbAAn/CJEhL+GMSEv4YxIS/hjEhL+GMSEv4YxIS/hjEhL+GMSEv4YxIS/hjEhL+GMSEv4YxIS/hjEhL+GMSEv4YxIS/hjEhL+GMSEv4YxIS/hjEhL+GMSEv4YxSZN0OsTYAk/5RYszLS7hczsmn8MSeHE6tTYHlWTdRAmB98MG080Sg42YqJCSc6Ki3TSlOCGynzbhcryfgn2nvDYTrYoEs1+I8fIIw+T01Muk664XKpEUNE686aA22CbSIi5ERIYbma84KEglsMJP8g7T7S6W23K15odrMxzI/8A3HoljYmpZwm3mj5CEhh0m3mjQ2zBdhCQ8qKiwYpUZbYxPAn4o/f/AEPd7v8ANqWyjjydr73tG5jaLREzTR873y3EaqM0yrz0zzqy1zCgRbitZ11ItxW8876xbit5531i3FbzzvrFuK3nnfWLb1rOu+sTKTT5Mk5JTa8jhfR8pAfy2Nk1JoLc+n4jHU5+oXObJOsiksaf43O1u5dgiiqv7csFtWcn33k/ISNVFP2SAU3n3BbbHtI12IkIn0UlLNtIvaqfaL91+XKOTLDcskvOA2KkbSByi5/1yjkvISjLoSxOCoq+48Kh9T5baOS8yybToL1iabFjlckpp1gl7foy2bYJReln23m17CbJCSOUJqWafD9HBQt2rsJilzjqL+YNEtybR/lAHPC2ufNkJdVVedWhiny3hDFPlvCGKfLeEMU+W8IYp8si7fwhjkT5nM+Mu9xNDd3YyHB9Xdvck/oFdiXNE+n4SV07sAPm3b3JP6BXYlzRPp+EldO7AD5t29yT+gVzhBJyjxm6QipKiK2QxU5vKnFTm8qcVObypxU5vKnFTm8qcVObypxU5vKnFTm8qcVObypxU5vKnFTm8qcVObypxU5vKnFTm8qcVObypxU5vKnFTm8qcVObypxU5vKnFTm8qcVObypxU5vKnFTm8qcVObypxU5vKnFTm8qcVObypxU5vKnFTm8qcVObypw6bkm4wwAkYKC7QG7AD5t29yT+gW48APm3b3JP6BXPtsvTrhADjm1RH4RUuXZFpKbwuRaSm8LkWkpvC5FpKbwuRaSm8LkWkpvC5FpKbwuRaSm8LkWkpvC5FpKbwuRaSm8LkWkpvC5FpKbwuRaSm8LkWkpvC5FpKbwuRaSm8LkWkpvC5FpKbwuRaSm8LkWkpvC5FpKbwuRaSm8LkWkpvC5FpKbwuRaSm8LkWkpvC5FpKbwuRaSm8LkWkpvC5E2zMPNNtmrjW1B2OJt67sAPm3b3JP6BXYlzRPp+EldO7AD5t29yT+gV2Jc0T6fhJXTuwA+bdvck/oFdiXNE+n4SV07sAPm3b3JP6BXYlzRPp+EldO7AD5t29yT+gV2Jc0T6fhJXTuwA+bdvck/oFdiXNE+n4SV07sAPm3b3JP6BXYlzRPp+EldO7AD5t29yT+gV2Jc0T6fhJXTuwA+bdvck/oFdiXNE+n4SV07sAPm3b3JP6BXYlzRPp+EldO7AD5t29yT+gV2Jc0T6fhJXTuwA+bdvck/oFdiXNE+n4SV07sAPm3b3JP6BXYlzRPp+EldO7AD5t29yT+gV2Jc0T6fhJXTuwA+bdvck/oFdiXNE+n4SV07sAPm3b3JP6BXYlzRPp+EldO7AD5t29yT+gV2Jc0T6fhJXTuwA+bdvck/oFdiXNE+n4SV07sAPm3b3JP6BXYlzRPp+EldO7AD5t29yT+gV2Jc0T6fhJXTuwA+bdvck/oFdiXNE+n4SV07sAPm3b3JP6BXYlzRPp+EldO7AD5t29yT+gV2Jc0T6fhJXTuwA+bdvck/oFdiXNE+n4SV07sAPm3b3JP6BXYlzRPp+EldO7AD5t29yT+gV2Jc0T6fhJXTuwA+bdvck/oFdiXNE+n4SV07sAPm3b3JP6BXYlzRPp+EldO7AD5t29yT+gV2Jc0T6fhJXTuwA+bdvck/oFdiXNE+n4SV07sAPm3b3JP6BXYlzRPp+EldO7AD5t29yT+gV2Jc0T6fhJXTuwA+bdvck/oFdiXNE+n4SV07sAPm3b3JP6BXYlzRPp+EldO7AD5t29yT+gVymkpKPGbqtj8RbCbIYdqOVh2o5WHajlYdqOVh2o5WHajlYdqOVh2o5WHajlYdqOVh2o5WHajlYdqOVh2o5WHajlYdqOVh2o5WHajlYdqOVh2o5WHajlYdqOVh2o5WHajlYdqOVh2o5WHajlYdqOVh2o5WHajlYV1ZRxhgBV0PgLaA3YAfNu3uSf0C3HgB827e5J/QK6YbZenXCAHHEVRH4RUuXZFqKbwOxaim8DsWopvA7FqKbwOxaim8DsWopvA7FqKbwOxaim8DsWopvA7FqKbwOxaim8DsWopvA7FqKbwOxaim8DsWopvA7FqKbwOxaim8DsWopvA7FqKbwOxaim8DsWopvA7FqKbwOxaim8DsWopvA7FqKbwOxaim8DsWopvA7FqKbwOxaim8DsWopvA7E2zMPNNtmrjSKgqjibeu7AD5t29yT+gV2Jc0T6fhJXTuwA+bdvck/oFdiXNE/nTzMpLN/bdeNABP3KHKhP9pyrHJ/u8TcDU5H+++wKh/uyZxUmJyWL/yMmhJ+i9nzsJK6d2AHzbt7kn9ArsS5on80/wDtMD9RtF+s64XILY/msTa/Qoa/w0oCr9CwHYPuvniZcFU+kb523hT7hj1pGxt5PqTUvt5WXfm4SV07sAPm3b3JP6BXYlzRP5rmxiQY+ndHtef9BumGqfS0NQSadBTVwh/DCJ5uqU5rkfdbbVpxr8yDaVzipK1dk2iHsdaRTBfm4SV07sAPm3b9pyjzwj+pMldjfg8QCD5qchsyahlwuINjEqjD4p1PhyHCh/CpTnwIS++pgoiH7qt32knxL9hRVX5vO0xKgXhIt3dwLxbt+y62QF+hJshFRyUmnmDRepWiUY5XJOZafFO1WyQocQ2JlkHmyTrA02p8xra2gfwc6ukV1Wclkd2K41sQ2j/UCisG8wBfEEuAo20hdvwjc0qStObJlgu1972h8wkQURVVV6kTrWC2hNzjpt/+tOQP+IHaRkginaqx/VJGXY8MEHdzeyVq7aTQL/iczlz38/pQ7WO1yVL2fMlgflJptWnmy5iEol3alRVJSB1tPjdYHseRPNfLHIUfbtcnXh2fEPYyn3liX+ilJUPhFOsl6zLtJfmP7KnVxJhrtBnmcO5vbLSTiT0x/kYVCTiLd7Xx1SQVZmS7T/tt/ukCqEiqiovVsh/6OalTQh7CTrEu0Vg0bmgREm5Mi2uMn7V6i+bZanzDpc7isihr+4xZOnNODzH9AJkn7lCbE7PmTKCKJsZYT+kfc6gBIP67n1Wmk+yy0P2WxuZUKlWEF1RLnaYH7Abwldsi+W2osAn9A5+L/kK6fOWmmuYh5iTrEx5iGASlz346bSlnPZE8xMsGiKLjLguCqL2KO3o800wyCKpOOmgCiJ2qWyNlYqHa2uyWD9T9sTxPuryNgnI20HUAD1JdLbKJJubWwNOSbd9iRyIibwaFxsxUTA0QhJFTYqKi9SxLE/Jcpv04eVxn82u0IRUJF2Ki9V1Um5Nz+3LPG0X+4KkWzn1T/EJHPOixbGc4W/bFsZzhb9sWxnOFv2xbGc4W/bFsZzhb9sWxnOFv2xbGc4W/bFsZzhb9sWxnOFv2xbGc4W/bFsZzhb9sWxnOFv2xbGc4W/bFsZzhb9sWxnOFv2xbGc4W/bFsZzhb9sWxnOFv2xbGc4W/bFsZzhb9sWzntnaCiHliszs6XbMvm751W9lySo/ITbH2X5r2BEs2xLMALbTTYoIAIps2Iibzl1kKmX9cldgqRdro8xxLtViV6jlV2O+GcU2ZlHP7L7RNr/8Aro8i/MuqvIDLZOFy/kMU8aVKrzuzpbC8NNpQC1WpDyo/MinwNl2tt73bEwXnE0Qk/dFizVMIu1ZVv2xZal5Vv0iy1LyrfpFlqXlW/SLLUvKt+kWWpeVb9IstS8q36RZal5Vv0iy1LyrfpFlqXlW/SLLUvKt+kWWpeVb9IstS8q36RZal5Vv0iy1LyrfpFlqXlW/SLLUvKt+kWWpeVb9IstS8q36RZal5Vv0iy1LyrfpFmaWhf/K17YYBptOYAFBH9tn+nb//2Q==;" vertex="1" parent="1">
          <mxGeometry x="747" y="80" width="80" height="80" as="geometry" />
        </mxCell>
        <mxCell id="JYMPH2STM9JoLJSGxEeI-9" value="" style="rounded=1;whiteSpace=wrap;html=1;" vertex="1" parent="1">
          <mxGeometry x="400" y="40" width="80" height="160" as="geometry" />
        </mxCell>
        <mxCell id="JYMPH2STM9JoLJSGxEeI-11" value="" style="shape=image;verticalLabelPosition=bottom;labelBackgroundColor=default;verticalAlign=top;aspect=fixed;imageAspect=0;image=data:image/jpeg,/9j/4AAQSkZJRgABAQEBLAEsAAD/2wBDAAgGBgcGBQgHBwcJCQgKDBQNDAsLDBkSEw8UHRofHh0aHBwgJC4nICIsIxwcKDcpLDAxNDQ0Hyc5PTgyPC4zNDL/wgALCAOEAgABASIA/8QAGwABAAIDAQEAAAAAAAAAAAAAAAYHAwQFAgH/2gAIAQEAAAABn4AAAAAAAAAAAGKNbUgAAAAAAEf1ZLlAADFUHET+wAAAAAAFfwB27fygACsYcbt5AAAAAAKN0iY2cAARSqxIrdAAAAAAVFHRakrAA1aU1TaubfAAAAAAaFM6ptXXtAArOGC2ZM8x7P3AAAAAcPBIfSM1MJnZgAcqlvhMLPfKkjifWCAAAAK+gKR239VhDz7dPVAFWRM2bt2UCr02b2AAAAFE6xYU9a1JaxLLTAOfSPwsWdOXS/g7dyAAAACm+Ie7o6iC10fbu6ACvYEbV4ZVSRsyXJ1wAAAByKbxkkttio/VJ7YQHykNAnlhuFTosOeHO+dIAABzfvRIHXguLuq8gZv3f9Bw6cF3dFVEXOjdftX8ATywwAAV5A0/sB4pTnEotdzqRFx9wFfQE7dyNOjvJZ0xcWm/j7fGYAAYaH+PtydpDqxPV47im+IT6wQU/wAAsCfoXWhs3lkVDHjYvT2AAPFF65IbeY6N1iy5ogFfnfuAPND4i4e8qaMkzsxyKXFlzQHFiPJdeX9gELrQXR11Zwwk1suDTxlvj0OXSh6vjL8onXLZkyuYMdG7PQ8VpDg+zSyPQ80nzic2MjNTGxe33FQ/kuvqCM1MdG7nPpA+3rsqV5RYk7CrImAmNnBBK7OrdTWor4Xf0FI84tmTCF1oSG3kcqM3rxYKI+F1dURipwBbkjHKpU+3vnUdoluSNUMeLLmggVekstNEKvO7cTj0wZb5+ipoyAJRa4+UNiLn7CneEWhL1WRMsKeivYETKzUKrUk1so7UR0buCjNMAbt5BSPOLdkSpoyWVNVZQ0nthCvYETOzEJrYk9sI3Uh07sCiNcAbF7hSfMLbkip4wWTNlZwwnthCAV+S+0ENrIkNvOFTptXqFNcUAdq5QorVLi7qoY8WbMlXxAsCfiD1wSa2UXqg6l1tGjhem2IFXoAsKejUosXjvKU5Za8oVNGSyJuIpVZ2LncemDJfHtRWqWpKxgpfngOhdGcRSqzavV4ofGXP2FMcctSVjiU2Zr4+4qH8lzdlVUVJLbQcipNIG7bfXCpY0Sq1XGpk9Xxl+UPhLk7Y16J+F2dNTPGLCnqK1Ufbl7IalI4Rmu7bDjU18LVlSBV6dm5nMpM+3tsBSnLLNmSvIGde6HikNI7dxegorVG1eoead4hu3f7UvyCeWGhtZHUusFZQ0lVquLTQuTtoVWotmTBRWqNq9QjNTCypq4lNi5e0qqKkys0EUqszXplUpyyT2w801xy25IFFao2r1CN1Idi5fSp4wdS62Ki8JakrBgovGWhL0MrMXB33MqbnS+zfoUVqjavUPlZRDo2z03Ap8WZM0Qq8yXpnAqqKnbuRjpLROnc+U8ewKK1RtXqB49mKmOYb125FN8QlVqgI5UYt6QojVwmNnABRWqNq9QArGHC0Zcj1Qi3JGA+UvyTt3IVDHhdPWAFFao2r1AHIpcSG3im+Ida6PoBE6sFnzBoUxrFydsAUVqjavUAcSmzZuffQ+sBacsAHymeObN1biPVTry+0AAorVG1eoAVfENi1pC06V1jsXN9ADgU+JDbv1jw7QAKK1RtXqADVzZHyoo8Lg74AFZwwTqxQABRWqNq9QABXUFEzswABhpjmi7ekAPPN8FP642LgPfS9ADm0kOlc+YAA5FOYi5+wAcSqtAABv2r2wDj0wZbj64AARercUvtAA80joAADfu70AVfEMtpSgAADBg3gBwqdAABcXdAGjnzgAAAAK/gAAAJ/YAAAAAAACnuCAADvXCAAAAAABhonwHa6IOdxQ93tmAAAAAABGqlDt3H9B8pziBbUlAAAAAABW8ICwp6AgVehN7IAAAAAABS3JC4+4A4dOB1rpAAAAAADTo34Ni9fQDzRWuPt5bgAAAAAAiVWhKLXAFURcLSloAAAAAArCHhZM2AEJrYJhZ4AAAAAAo/QC6+oAOXSgb94AAAAAAHNpIN28gAUbpBdvSAAAAAAQqtQltpAAqiO5dfwsqagAAAAAKoi4dy4voA0adePWilFrgAAAADz9+/KK1gSKzt8BFK0xbeDZ5zZvX6AAAAA+eXviU2Az2TLn01a2juv52fuv5Ll7T59AAAAHj589IVXWf7i+ZmFmkNjbWSOVxp+cv3Wy4c/z1OZ34fMgAAABi9/HmpONk+YvQGxJeZxWHawZPPr4JDavz569gAAAGP789YaNe/uP799eAza/v5h2HrF6+DPdnr57+PYAAAHzz99R2omY8bev8+fPXjNj9Yvnv3573N033zltbv/AD78ewAAAAruCBPZzWcVADNZcur+ABO7EAAAAAFM8YLg7+rRQASq1XAp8OzcwAAAABrUV8Ga9uXV3IAD7N7D+0ThH29dkAAAABFqpDNMYX4AAdSzKz5YWtKQAAAAFZwwAAAAEzswAAAABSXNAA68u04XiAA6V2gAAAAc+kAAfZ3YHtzKv4YAF39AAAAAEOrEAOhaHfDzBq+8ABZ0xAAAABVcUAEusnYAcir+OAJXagAAAAfKM1AGxZcsADxAYH5Abd5/QAAAByKXASGz98ABxKv5YC6OuAAAAINXIPdhTn6AAMVewj4CxpyAAAAKkjYZrh7AAACN1ICSW2AAAAeKJwhs3VuAAAODTwM17ewAAAHAp8DasqVgAB4gUC8gXB3wAAAFfwAAldk7YADk1fxgCf2AAAAApzhgDbsuUgB8g1fYwB3LjAAAAwUT5ABLLJ2gHNq/hAA9XtnAAABGamAAblmScPkLrrEAAtmTAAAAreEB1d2OgEusjZaFYx0B6mXJ4ITeyAAAAUpywuXtRKttYBuy/HDsADp2h3OLTQdS6wAAA0qNDZvX606yjIAAfZtYmR8orWC8t0AAARGrglFrhEK31wAHQs+QBVEXC0ZcAAAKviAWXNAaVYxsAEysfMCF1oEvtAAAAUbpBdnTA80NjAG/eADmUmG7eQAABy6UDfvADBW8PABNLFzAUfoBdfUAAAQmtgmFngj1YaAADoWfIAVhDwsmbAAAKnjAWnLBiruFfAAB9mtiZRE6sCT2wAAB5onAPt5bhw6u5oDPLPMTxAOlZ/eNOjfgz3t6AABw6cDrXS8V9BfgCR2dvOdWHAAfZvYeRS3JC4+4AACBV6E3sjjVfyQGaxpmHyE15iAdO0O5W8ICwp6AACn+AEg7cH8AO/Z/RAc2sOCA+zTi8QO/cAAAYqI8AAMlhTj6APkHr3GAA93vlAAEcqMAB2rQ6oADl1hwwAFuSMAAV1BQAep/PPQAA8wavvAAJ1YoAApfkAB17Q7AAADlVfxQA690AAGpRnwA+zuwPYAAA8wSAeAD7ee2AAilVgHTs/ugAAAORWHGALSloAYorw+DyQH2UZQAAAB4jGMB0ZH3JVlAj9XaIAAAAAAAAN60ZAHDqDGAAAAAAAAAyW/3BTHHAAAAAAAAAHYuc41MgAAAAAAAAAubsohV4AAAAAAAAALPmCG1kAAAAAAAAACzJmhtZAAAAAAAAAAsyZobWQAAAAAAAAALMmaG1kAAAAAAAAACzJmjdSAAAAAAAAAAtuSFeRHyAAAAAAAAA9S6wwAAAAAAAAAAAAAAAAAAAAB//8QAMxAAAQQABAUDAwMFAAMBAAAABAECAwUAEBMgBhESFDA0QFAWIjEhMkMVJCUzNSNCYHD/2gAIAQEAAQUC/wDiZJGRMk4gDYo9yGQ74gi5DHdHxAG9Y5GSs9jJI2KOysXnTZUVk5X/AA17ZOR+VbYvBmjkbLH7C7su4kzDcrTfhjHK43Oksu3k893YdrBsphVIP+GuRVHP2Ulh3UHlInYNARO8mfMeB5M4YjAx/hjBGGDkQPGnzHneNOPOwmDyX52rNsp67s4MlcjUkvAY1gtwiHe+ntwh3R3gMio5HJlcV3eQbKA7Sm8diWgYaqrlzogNebJVRqWtm42XKjs3K/3l5ZuR+VVZuClRUcmV6BoTZoqtWuLQwPxXxeuXnBC4iceBo0GV9YckzHcrCfeEOV5OdDYc0yIgaTBPC4efOhL0C/CaQgoaqrlz4eD6WZWBiBCOcr351Qqkn+8tRVGPza5WPrzENEy4hD6mZoqtUIhCg/BxGT92Y0DiSI42xRZXJvdGZsY6R9cE0Eb3liE04Z7HRvzpje1MykjbLETA4YjPhwn7t6ryQ2fuTM+HBubsrYvtAdlAByTOU8WBYjxJ19pKeJAsR4s6534HNNlSX3YOXEY3J2YU/bGIvNN1vPoVuf5wCP2oWV6VrnZgiqYWxqMZldWrkflTWztT2VzbO1MqW1cr8ntR7DhVDLzoitA7I4fugvxsqJ9et3cSTfrnUwdxY5FTIOK5yudnw+JpDZWZvZBqqquSKrVid1w+wld0QqquXJFVFrDe9Dy4gE1Rs2uVrhZkIFytoO3ss+G5v13XMuraZ8Nw58Rz9I2Y8KkEMYkceVyX3R2cELiJ2t6Gewc3rZPC4efOmL7U7J7EkjIhUcjPhyfqGy4kh2U0ulabXL0tkeskudNDo1mV7Nq2WfDsHWVlZk9qBsoAdOHcVaCiYm4jlXDrs92G3Z7cQ8SSpgWzFM334OpDsrCe6Ay4ig6Cs6KbSssrmHWrM43rHK1epuyxfp12aJ1OiZpxYVeSTyapGdFDpVuXEZHOXMEZSzGtRrdj3tjZY3ck67fxitvHxq1yObsc1HNOGUQzPhwjlLlew6tbnBJpEIvNMSs1IlTpdnXP1K7ZfP6avMBmpYZHyaQGf5UePSHysptewz4cH5M23NkpMvgpbNYJNvEY/NmdbNoWGREeqP8AhcwJNUDI9mnYZ0L+qr2cSO5CZ0jeq1yvH9NVmEzUNymfpwKvNc62HQrtl2Z2wfipTO7D2WUOvXZovJYX6kGRrNM3Ojf1VWV23ptc+G3cxNnEq/bnw8nOxy4idyAzp29Vrlau6KvONvXKick2Xs+rZeKhn0rHYqc0kb0S51TuuryuG9Nrnw67mBlxCnKxz4aX7dnEv7s+HPW5cSelzoU/ymV4vKqzATnYbS3dZniEfpmbT05WGdGvOqyvk/ymfDfpcuI/W58Nfu2cS/uz4b9ZlxJ6bOg/6mV7/wArOu/6O0hORHiHTmRtsf8Ao50X/Kyv/wDqZ8N+my4k9Znw1+7ZxKmzh1f8hlxGn9lnSLytcrhvVVZjO6CtttFo2fiqYtaz2ku6ys6dvTVZXa87XPhxP7LLiJf8hnw0m3iVP7fOhdytMr9vOszrX9FlkYzUC2DSawuziMXm3xcOC8m7CZNEXYGzTCysn9dlnQN5VmV87naZ8NJ/b7OIW867Oqf0WeVqzUrM2O6JGu6mZEx6JOdBPqgbJomzwmCPDJ8AYjzCYYmwQ7L+fSAzGj1icnO6WPd1yZ1TNOsytX9dnnw83lXbLdmpV5xP05kXmmJGakTk6XZ1UutW5X8GlYZ0hXbnbTwIz4ShZRJdwospcoAEYEO27K7g7Ogg1bDK1l0a3NqdTo2acWFXkkr9SbOoZp1eydmrAv6LnXS61flaw6Nlnw3P9uV8NrA5/hawxDQ9pA0RUczUZNshaj5hxohY9tmYgQf5XOhG0QcuJJ/tzqodayysZdGvzT9VgZpQbbGLRsM+HZuoTLiSD786wjtbDJ7UewsdRSs6s5QSmuRzdpPqtg3qtrnI1tocpxWYg6lFMajGZWZHdWGfDcH35cRTdImddFrWG7iKHpMzoJ9Kwyth+5rtlUV3QGXEAWpFsoZVlrdpPqtg3qtt9Ksdbs4fC04srUrtQNlSP21dlfz6thnw7D1Gbr+DUr84pFhmjkSWLKxG7U7OkM7YzJyI5tkEoJWdHCsNbtJ9VsG9VtvIVmrc60JTimojW5XZncmZ1w3dHZSSJFFLIs02dBBp1+6aJJoHsWOTPh8rVDy4hE1B9lSd3gmRwTDhyq8kRyNVVrqSSZ6JyTaT6rYN6raqc0saSSF6tVFFryS3AhMBHytjuzE2cPCaY+XEBWkHmxiySQxJDBvvxtE7OqK7Q/J7EkjMGcIVmAY4IqORsseaMangJ9VsG9VvVjV2SSNijPMcaVmGM4spjEjjytSu7PzoBtY7wXQvcV+ynM7sLK9B1x9lJZdu/wAZPqtg3qvHd2XcP2UQOgPlcGdoFspRe3r/AAfnFiL2ZudUZ2Zv5ztwFCJ2VkykV3iJ9VsG9V4rOZR67ZUAKaTl+MWpneG51wveG/jxXweuJsoj9eDIwVhg08Dxps6mJYazxE+q2Deq8VtEs1ZnBA8mYMVgY2V6foQbKEPQE8SpzSyDUIzMed404pLCx8rStQ6KaCUd+Kunknf4yfVbBvVeO0p5IH4hglIfV1qAxZFEsEHIneTPnWhqaYick8dsD3gmypsOyIRUcmTmMkRo0DF8hPqtg3qvI4aB6tYyNMlVGpbWHekbKkLsxPLe1+jLspLToX2BPqtg3qvYXdp1rsoq/Wl80sTJojg3hE7K+ZSAPEqo1HWIbV/qgOP6oDj+qA4nVHEbIFRpH9UBx/VAcf1QHDbENyoqOTxWEyjgbAQ3mkxRMhi89iC04aSN0UmdXEsNb4bGxjAiJNnLf5hjZxH11jGfF4bSJZq3OON0slcC0Eb2NtV96ySN8T8VVQ+eTwuVGtMJcWV7AMlwhTVRzfDa1D4JMRxvlfU1fZM9nJDFMjAhol8VxNo1nsqebWrPE8IaVY4YoU+A4km9nw3N8bcTa1n7Knm0bP4uWRIoXOV79otUWW36eNx9PG4+njcfTxuPp43H08bgqqLEbta5WPikSWH4q9m0q3bVCoWeick3KnNLUVBD9tFNq1vxXEk3Ofbw3D9vg4kh+3bw3Nyn+Ks5tex21EOjWeC3h1qzbWTaFj8SVLoCfnbBEs07URrfA5Ec2eJYZ9n4wLLrifEcQT6YG2hh1LHxX0OnY7eH59QD4jiKbrN28OQ9I3i4jh6htvDs3Qb8QbNrm7a6HQr/ABWMOvX7QptA34ewm0ANocOuZ5DIdAzbXza4Hw3Ec3SNt4ejR1h5L9ESzbGrsaGHNVq5cOTdQ3w19NqWO2pLQM5FRU8RRcQkU8zjDHfc/lFz/VUyoZtOx+FVelCJdYjdX28wWBTITI/BYXcQ2JyJSZGLye77JOSdK/vyHl0SEXqT4DnhcJlaz6Nb4IZpB5K+8jIx+cc02TkRDR2N1KThOSYVOS4bLyTV5Y5rsqZtety5p71c0yv5uTUTqXn+qrI1HInJreaorlwquTDm8sMTmqK9cBXEwiwERkx5HW8Qyzlzlyu59C/j/wAuE6sR/vVVcxjepUVy4Vypj/yLjh4hVT4BML+UyuZtayZ+Gp9v7sOd1Y/hk/TEf6r/AAp/qf8Ahf8AVrywTsvSkUi5MnSP8/w5O/fp4j/2fxt/Y79n8Mn5qZtOy/8AX4FMPcjGSu65Y1/VP0wv3Y6P0b9zf0ejG9Mn8Kf6pMfwy/7P5Ub1L9rEd+jMf+i9DlRebo/9n8bf9b/2/wAMn5Y7oljdqRZJhVwi+75Y5ZXE2hXZdf6c48dTURqOc6Vj4l6/uVydLXckc7qVHJ0uXqcj0w13LHU1MKvNcNcrV6mYc7ngSoLIaTE8aRruWHO54a5ERzupUe3FLNrVvLNUwie+4km5ybeG4EVZ4IiY7KmkE8kUT55a+jjHy4kh3cNzcpPgrWbXsttNDo1mCXsjG8fD72NscrmHWrNtVNoWXwJEuiMq812RMWWVjUYw2xgBabYznO8aLyWvvnMwx7ZWPaj2SsWKXYi8lHl1hvgL+bTrtsUjoZZ+IpHwve6R3mDPnBeLbikx2Msc1htoJtSu+A4jm6i/fcOTdJfwB82uf5Qq0g5WcNR8iOHHtbJG+J/lAm0D/fnTaAXkRFVa6h6sNa1jcjAYDWH1cwLvKDNrhe+4im6A/GIHMbIBVQgptVEclhQo7D2Ojd4+HZusP33EE2pYeKupJCcQwxjx+A2ugOadWzgu8XD82nYe9VeSFS65XghgkIkr6SIbyOa17bCg5YVFavgFl0CkXmnvLSbQrvBX1MxuBQ4Q4/MdVwHNMAnBf4KubXrvecSTcodzGOkfX0KNwiIiewkjZKywoXR4VOS7uG5ucPvLybVs9sUbppQa2EFntLOqiLi3Uc2lZ+7e5GMlessu0ebtyBioi4vaWVlEHDuiesUrHI9nurmbRrN8BEo0lfdxE+yc5rG2F/hzle7fTTa1Z7riSbxV93KLgcmIqPzG2EALDrOc53h4bm93bza1n4hyZRZK+6hK8iqjUsL5G4e90j/FUTaNn7maRIYHL1O8lfdyjYgIiJj8Bh0ATD7Wc5fI1el0MiTQe4vZtKt8wxUwklfcwl7vxiwvmRYklfM/zUU2rW+44jm6p9oVfOcpVKUKzw195IPiCeIiPIoyEOOwt5jfCiK5ReHpZGWNXIBu4cm6Z/cWM2vYbamHQrcWFHGTiceUaTwDFTCSR8Su5TcSSOSaaSeTwBgTmvBq4AUxbQ69btrptCw9uZLoB7R4tYhE6UyJFhLjPpphPZInNa+hdJhkbImZKnUhEWiRtDl1w/bcQzdAO2hh1LHbYUcZGJoJB5PMIFMZIBUwhJtvodOx28PTdYPtuIZus3bw5D0i7iRIS47CnmD8tfRvnxFFHBHu4jh6hdvD03Qb7YyXXM218OgBvciK2TlqeILo77wWEOuBtDl0DPa2M2hX7Qodc3fLNHBHY3byPLXXr4cRSsmZvNh0DdtdNr1/tOI5ukbbw7D1m7j7eEJCjJjJPMIbOFIBbQGpu4ih6DdvDk3UN7S+m1bHbw/DpgbJJGRMsL58mPz7FF5LX3z48RyMlZs4gh1ANtDNpWPs3KjWzyLNPs/OBYtATM+0gBQw6c1/ghhknki4cnck3DpDEkifC/wCHThPAtYDUzKi1xPxtgkWGdqo5vsrebRrNtZDr2OT3tjbYXyuwqq5fBX1ExmBRIQ48iwYDYz6mYJfAiqi1985mGSMlZlZw6FjtqJtas9lxJN9u3huHnPg6ygBabYznP8ABFE+Z9fRMh3KnNLChbJiSN8T/AGfOE8C0gOTHEkXIjbw3N9vsrmbWs9tXZf0+QziFXMc5z3eACqmOUQGAKPwGAwGsPqpwV8CKrVD4hkiZZWLrCXbTTaNn7GV6RRPcr3+ZjHSPr6FrMIiIniVEVLCha/D2Ojf5mOVj4npLF7C8m0qzzA1k5zg6+AFnmMAgNYdVzgr5qObVrPYcSTc5fI1qvdX0GGtRrfYKiOSwoEdh7HRu8nDc3KX2FpNr2PjCrpznA1sALfaG18BzDqycFfHVzaFj5yZdAVV5r4URXLX0CuwxjY2e2c1HNsKDnhzHMd4UXko0uuL5uIJtOv8IYE5rwauAFPdG10BzTq2cF3h4fISQHxySMiZPxCNHh3EhC4NsJj/AAp+ix3pELPqIvH1EXj6iLx9RF4+oi8fURePqIvH1EXj6iLx9RF4+oi8fURePqIvH1EXj6iLx9RF4+oi8fURePqIvH1EXj6iLx9RF4+oi8fURePqIvH1EXj6iLx9RF4dfkva93U/wBmSgyt4kITEHEI0mI5GSs32VrGC0kuct/ywxc4j621jObtsz0BHe90r/mGPdE+sPQ4fZZl94b81WF9mbnazaFb85VTa9blxE7kB85w67mBlxH6L5zhv0eXEfovnOG/R5cR+i+c4b9HlxH6L5zhv0eV4Os9d85RjrBXZ2NE7rcEU1e0Ix2hGO0Ix2hGO0Ix2hGO0Ix2hGO0Ix2hGO0Ix2hGO0Ix2hGO0Ix2hGO0Ix2hGO0Ix2hGO0Ix2hGO0Ix2hGO0Ix2hGO0Ix2hGO0Ix2hGO0Ix2hGO0Ix2hGO0Ix2hGO0Ix2hGO0Ix2hGO0Ix2hGO0Ix2hGO0Ix2hGO0Ix2hGO0Ix2hGO0Ix2hGO0Ix2hGO0Ix2hGGhFOWuondf/AOBf/8QAPhAAAQIDAwgHBwMEAwEBAAAAAQIDABEgEjFBBBAhIjAyUVIzQEJhcXKSExQjUGKBkYKhsTRDU9GTosFgcP/aAAgBAQAGPwL/AOJK3FBKRiYkm2vwEWbdhX16PlNm3bV9GmJKto8RAW2oKScR1JS1mSU6SY4NDdTn90eM+Q/+fJ/dGTLnP/mfi0d5MJWgzSrSD1H3do/DTeeJoZIvtj5O8TfbNHu7p+Gq48D1D2LZ+K5+wpSqWo3rH5OpUtRzWFPsXD8Vv9xtlvLuSIU6u9VCWmxrKgNI+54/Jy0v7HhCmnBrJoS6i9MIeRcobX3ZB1Eb3jT7RY+Mu/uzzUZAYmJe0KvKIspdsq4K0dfsqdtK4J0xL2hT5hE0mYOIz+0QPjIu76fdlnUXu+O0W52rk+MTN5o94cHw27u85ySZAQUIMmBcOOcZI8Zz3Cf466ckZMpb5H8ZwhZmwbxwgEGYOf3hsfDcv7jRMXiEOdq5Xjs/YpOo1/NCGkXqMIaRckZ/dGj5z/5Q0oXhQ666o3lRo90dPkP/AJnW0u5QhbS70mj2KjqO/wA7Jx3gNHjBJvNCsqWNKtCM6ne1ckd8FSjNR0mhsS1Um0rrrglqqNpNAUkyUNIhLvauUO/OnKkDSnQugEXiG3eI0+OxbyYYayqEMpvUYS2ndSJDOUpPw29AoCECajoAgI7Z0qPXSjtjSkwULElDQRQEqPw3NBzqbVuqEjC2VXpNDmTE36ydhMw47xOihzKSLtVOdRB11aqafe3BpOhH+6JOPoB4RJt9BPCfVZOPoB4TiTb6CeFHvbY0jQv/AHSkk66dVWdvKQL9VVDbvA6YmK3TirVFLTWIGnxz+zG61o+9CGRcb/CAhIkkaBnOS5OqUt9Q/jOMmyhUwdxR6mcmydUgN9QzjJcoVOe4o/xnKFCaToMLZNwu8KPZndd0ffO61iRo8aWjinVNbLP6jQ0nAaxzuOnsiCo3mg5Qoazl3hnUodIrQmJm/OCLxCFcUg9RWrgkmCTec8xfCVHpE6F5xlCRrN3+FAULxDbo7QzupwOsKHmf1Ct3gnVoef8A0jO2yO2ZmhtoXqMoShNyRIZ1AHUb1RQhpN6jKAkYCXUSk4iULaVekyoSCdRzVOdSFXKEjDjRvSZUOMnsGYzsv/pNDXBWrUVHCFLN6jOhrirWzqTg2LNC3jcgaPHO452rk+NPvSxrr3e4VyWu0vlTHwWkpH1aY6WXgkR0s/FIj4zKVDinREm1yVyqvr96QNdG94Utudq5XjnQ8LljT40JTg4LOd3inWoSsXpM4ChjS+r6KAOMIRyiWacOOcyiaEqxcNrO3k4uSLRobZwJ0+EBI0AUlSyAkXkwW8mJQ3zYmsNZUbSOfEQFJMwcaSk6QYcZwB0eFDmTm5QtDOpWLZtUNucqgYnmWjmEoI4UMK+ilQ5lAUMJ+sZ318EGltvlSBneX9UhQ5lBx1RUWGz8FP8A2OxGTun4SrjympvKBhqmhlf1SOdxvmSRSwvigZ30/WaEjlURS0niuhrumc7neQKGUcVjO4vlSTE6GUfTM02EHXc0fbZyUfiN6DS8j6ZiicNr5kg53kcFmhvuJGd3vkaHU8F05OnvNBPBBzpHFdDPjPO+fplQhPEygClScGxZ2YRg4JUkQtPAyoYP0yzveM6FDgvODxQKMoT3inJ/vQ55M7PnoT5Tnd+380ZOPrFTyuKzs2VcFirKB9Zoa+/851eUUPefO35KMo+1OT+Bod8mdnz0J8pzueIoyfzip0fUdm0PqFWUec0N+Jzq8ooe8+dryUZR4CnJz40KHFGds8F0Nd8/4zv+E6GlcFip4cTa2bI4G1U6ris0MeE87vdL+KHDxXnSOCKMoPhSyfqoT3pIzk8FA0ZOr687yOKDS05zJBpRlKRdqq2a8pUL9VNLrnKkmllHBAz5Qr66AeKic6u5IFDx+qmfKsUMH6pZ3x9M6Eq4GcBQxE87rfKoij2eLZlSppYmlQlCml/Y8RsUtI+54CEtIEkpEqfZ4uGVDTfMoDOVHAThSuJnQwPpnnfP1SonzLNL/cJ0IXyqBieZSOYSgpOFDJxAsnPbwcE6Ak7jmqarKtCxuq4R7N1Mjx41+zaTM8eEWU6VneVxqKRuN6oot4Nied44kWRQEjGEo5RLNOFr5lE0Md4nS4jmSREqGF/TneTgTaFDuTnDWGf2g3mjP7UpX2xoV41WHkBQhaBcFEUoQbioCLDKAkVKX2zoT40+0O86Z/bO1k4x1jQynAG0c76/polDaOVIFT6PqoW1yKztPjHVNDa+zORzlKriJGHGT2TRM9GrQsQFJMwanfOaWvOKipRkBEx0adCBQ2yO0YCU3ASGdxfZnIUOvnDVGdDXOqhhH1Vod500WDc4JZ3EjeGsKUKO+nVVnGVIGsjQrwpAPYNmp3zmlrziogds2aTlSxrL0J8M61DfVqppbSd46xz2Bc2JULd5E12xe2Z0IcTekzhLiblCedxvCc0+FFhR1HdH3zlJEwYKOwdKDQm1es2qnfOaWvOKlWb0G1QEdgaVmAkCQGewk6jWj70Nt4TmrwzqcVckThbir1GdFs3uGda2jcoShSFXpMqCyTrN/wAZ05QkaW7/AApEz8RGhWctq0Hsq4RJxsy5hdEgCTAcylNhvlN5iQqd85pa84qkYLmTJtt8ovESIIMSbbMuY3QG06T2lcc5kfiL0JpVlChpcu8M4ZB1nP4oShN6jKENC5IlsPaDddE/vQhR3Faqs6kKE0qEjC2VYHR4UJdG7cocRCXEGaVaRRoSBsHfOaWvONhpSDQpxZklOkwp07tyRwFCGU4nT4QlCRJKRIZ1qG4nVTR7Q7rQn99iogazesKQCfiN6qs/t0DXbv7xT7s6fhqOqeB2jvnNLXnG092aPw0nWPE0+3WNdy7uGcgH4jmqmlJI1nNY7JbfZvT4UJUejVoVRNI+EvSn/VLKzfKR2bvnNLXnGzeWL5SFM1D4SNKv9UKUOjToTQhvs3q8Nn7ZI12v4p93WfiN3d4zqaXjceBhTTgkpNDKTeRPZu+c0tecbN5IvAnQlpsTUqEtIwvPE5/d0H4jl/cKfbKGu7/GzkboUjsHSnwoS62dZMJeRcf2zzTIPJuPGLDqCk9+ZLuUJstDA9raO+c0tecbRTuTptNHAdnNYaQVHuiapF5V54Z1PLuH7wp1w6yqEo7A0q8IkLtobI+IjSmmSj8Fe93d8TGkHPJaQod4iaGWwe5O1d85pa842s1stk96YkhISO4Z5nQBEkn4KN3v76RaHxF6Vbb3lsai97uNIyR46p3Dw7uou+c0tecdROSMnVG+ePdT7y4NRG73nbqbWJpUJGC0q7sniKWXDeU6dnMmQiRylv8AMf1Lf5j+pb/Mf1Lf5hwi4qNLZNwUI/qW/wAx/Ut/mP6lv8xIZS3+YmDMbN5wXhOikNJu7R4CEtoEkpEh1AouWN0wptYkpN4oYSb5T2XM4d1MWnXCe7Db2mnCO7COVwbydk+kXynQltAmpVwgIvWd49S9o1oeT/2gocSUqGBzB59JS0NMj2tkVG4Qt1WN3cOoodThf3iAoXHZF5hJU0dMh2cwQ2kqUcBHtHdLyv8Ar1STjaV+IiaGGwfLs3eKtUdTa4p1Ts5rYbJ8sSbbSjwHyFln9R6m8z+ofLXeCdXqbXBWr8sW4eyJwVG8mdVttuSeKtEf2/VH9v1R/b9Uf2/VH9v1R/b9UW3G5p4p01BQvBnCHB2hP5WpOLhs1IQrcGsqJC6uRuhaE7h1k1JTi2bPytpnlEzU89+kbFl79JqdZ5hMfK3l4WpCpoYq1jsXRinWFTK8JyPyp13lTUhsdoygJFw2JSbjC2z2TKpp3mT8pDeLiqgrBsT2ZVg4J1FvFtXylLWCE1OPcypbNt7lVKpTWC0/KXnOKqmUY2ZnZvIxszFTLnBXyh5zGzoqaa5lbV1rlVUy5jZ0/J22eczqKuRG1MsUiebejTncZ5DP5OU4NiVSVr3FaqomLtmXHVS4DjCnV9oxYGgYxIX8YKFXi7OE4OCXyYk3CHHD2lTrsHXa5eEW2VT4jEbEtsycd/YR7R1ZUqBEzcYsjSZwTwGdtwdlU4BGPyV4z0kWRsQ40spUOEBvKJIc44Gq26sJEFtmbbX7mEiQNqDmkRONVMqWTiBZPyVpqejeMSiTY+8adIgKFxjTcI1BIRriYjRcY03CNXQI9m+PaN/uIC2lTGf2beu7wwEFRM41jMw3KL41yLMCFTwMd0amgRJwTjRoEOsqvGtnx+ROcE6sKPdCRzXxp0IEd0feLOAizxjwMKhI7oHjFppZSe6EpIQrRfKLNuwn6IV4QPHM1B8Yv1uECF+MLhEfeB4Qz9Ysn5IVG4CcLUbyZxLjoiyrRK4xpcEaCDBT9xGkyIgQfGFQnywPGDCPCDB1pmEj75kkdmLVqUFeAgQvxhcI8I+8DwhlQw0wFDtCea/5CvirVGeShOLjBsi+AEglWEo+OypJ7xKBIaBEgIII0ZpETicAy1hBnpBjQmJnPufvErhHtEpCE4W8YUytFlUGdxjuESImInAmDMQjinV+Rss8BaNTr5F2qIsOoCkwXWtdn9xtA22m0o3CA5lEnHOGAzMvfpNTzPEWh8jeVgDZFTfFWtmcU5u2dO01rymSc7nFOtUyrAmyfkTjvKmcTNKGxeoyhKRcBKNczXggXxrmSMEC7aTEBvK9ZPPjAWhQUk4iFJNxEoW2b0mVMxDbvMmfyGxi4qVSHE7yTMRZaasLxVOcFSySo4nbzbVq4pNxiZWG1C9KjDzjW4TVYxbVL5ChrkT19bXOn5C85xVo23w0yRzm6NfKFT7hE2Hbf0q0QUOJKVDA7ZlzgrT8gec4J0bWQEzAdyvQMG/9wEpACRgM9l1OnBQvETOu1zjbMucU6evoa51bSw0nxOAi1vu8xqkRMQXMk0H/AB/6gpWkpUMDtFtciuv2MG0y2YcfmhrhiYDbSQlI2OuJLwWL41xNGCxs7GDiZdenDrvMqexDbSSpRgOPScd/YbQpUAUnAwXMk/4/9RIiRGxad5VTifXXlYykNjaOo1zGLDSZcTidvMiy5gsRJxOrgoXHYsqxlI9daZ5jaNYSgEqNwEBzK9J5IkLuolDiQpJwMFzJNZPJjEjW6zym0OurGCNWpDab1GUaom5is9VU4lNl4C8Y1oGC9XrilG4CcLcN6jOpt3kVOPaNKmP46qpNqbpGhNaHBekzhKhcRPrbnFWrsLbKykwEPSbd/Y9SKlEADEwW8k/5P9QVKJJOJ2DfFOr1tlj9R2Qbem41+4i2ysKG3+IZqwQL41jZbwQNk8x+odbdOCdUbO2yspMBDsm3f2O0mTIQW8k0n/JBWtRUo4nZtHBWqetLcPZTOCo3naht+bjX7iPaNLCk7G06rTgkXmJbjXINqFC8QhwdpM+slOLhs7e2yuR/mAhz4bvDA1lvJZLXz4CCtxRUo4nbhOLZs9ZaZHZEzUfZDVF6jdFuQcTiU4bINvzcb44iA40sKTntuqlwGJiyNRrlGOxkkTJi0+57P6ZTMAzttm5VTrJ7QmOsvLwtSFTQxItHMXGJNucMDHs3UFKtjbZXZP8AMfFycE/SYkyyE95M4K3VlSjx2Mmk6MVG4RMazmKzmeTiBaFTK8LUj1h13lTU22O0qUADDPYeRaH8QVt/Ea44jqUhAcyvVTyYmAhCQlIwGcg4w42eyqVTTvMnq4bxcVUF4NidRcyeTbnDAwW3UFKtvZaT4nARa33eY1FeDgnUW8W1dXS1/jTU47zqlXYeRPv4QVp+Izx4bUOZTqN8uJgIbSEpGArbd5FSqU1/kT1d13mVUy3jZ07AhV2MKs7s9GzY9pu2xPYvN42dFTTvKrqzy8bMhUy3xVsCt1YSkcYLWTzQ1icTtQ1lU1owViIC21BSTiNg83wVUyvGzI9VbZ5lTqU7ghNZSNd3lEW3VT4DAbe00rxTgYs7jvKa0u4LTU4zyqn1UpwbFmouYuKpK3FBKRiYLeS6qOfE9SmIDeVayOfEQFtqCknEUhzFtVQTg4LPVCo3CFuHtKnU01ypokTadwQItOq0YJFw2NhpBUruibjqEd18TacS53XQUOJKVDA7G00rRik3GJTsO8hoda5k1IcHZVOAoXHqbpxVqiplGFqZzlS1BKRiYLeSaB/k/wBRMmZ2IWr4bPNxiwyiXE4nPZdTpwViItb7XMNjMaDAbyvWTz4wFoUFJOIzvIwtTFTRxTqnqbLP6jU69yiWbXNpzBAj4ipIwQLtiENpKlHAQHMpktfLgKpG6C5kuqrkwMFDiSlQwOxm0rRik3GJA2XeQ5mneYSqeZ/UOpucEaoqVaTabVeIs5Kkp+pUFSiSTidja3GuYxZaTpxVidjJ1OnBQvET32ucbGYMjFjKEe0+oXwDZsoTuipvgvVPUluG5InClG8me3CEJKlHAQHMr1lcmESAkNnIiYguZJqq5MIKFpKVDA7dKheDOEOC5Qn1FYxXq7fVFlvFZiTadbFRvO3k4nWwULxEzrN8426Big2eoss8BaO1CUgknAQHMr/4/wDcBKRIDAdRkRMGC5kmg/44KVpKVDA7V5niLQ6i8rCchtPhiSMVm6NQTXis9Vk4mSsFi+JqFpvBY2jKsJyPUHXeVM4nspATMBzK9A/x/wC4CUJCUjAdXKVCYOBguZJ/x/6gpWCFDA7KcNO8yZ7exi4qWyk0nRio3CJgW3ec9b1xJeCxfGuJt4LGy9lPWbP7bS24oJTxMSaSp0/gRqstjx0wj2tkWbpbG6cBDbTKUjAJjda/EbrX4jda/EbrX4jda/EbrX4jda/EbrX4jda/EbrX4jda/EbrX4jda/EbrX4jda/EbrX4jda/EbrX4jda/EbrX4jda/EbrX4jda/EbrX4jda/EbrX4jda/EbrX4gpU2yQcCmCQkJ7hsfaNSmRKRjWZbPhoiTqVNH8iLbagpPEbCyNd43Ji08snuwHze0ysjuwMWTqPC9NUx0itCRBWszUbz85C0GShcYmekToUKVr7A0J8PnaF9g6FeFDyheRZHz1lRvAsnOgcV/PVjgvO35/nrvnzt+f567587fn+eu+fO35/nrvnzqs3oNr56m1es2qC7kgmDeiJHJ3PTHQOekx0DnpMdA56THQOekx0DnpMdA56THQOekx0DnpMdA56THQOekx0DnpMdA56THQOekx0DnpMdA56THQOekx0DnpMdA56THQOekx0DnpMdA56THQOekx0DnpMdA56THQOekx0DnpMdA56THQOekx0DnpMdA56THQOekx0DnpMdA56THQOekx0DnpMdA56THQOekx0DnpMdA56THQOekx0DnpMdA56THQOekx0DnpMdA56THQOekx0DnpMdA56THQOekx0DnpMdA56THQOekx0DnpMdA56THQOekx0DnpMSGTuemA7lYkBcj/APA//8QALBABAAECAwYGAwEBAQAAAAAAAREAISAxURAwQWFxgUCRobHR8MHh8VBgcP/aAAgBAQABPyH/AInNQokFdylb9aGBpkD3Zf5KxMMwe7Ku5St+lZKFEk8EGc0jhSdlT+557R0El/M/xy6CC3m7QdlT+450Gc0Dj4Gcve19oMGQu9//AB8xd7+CMve99o8BwQGZ52HP0ZfY/wAfP0Zfcw8EBm+dvnZiZ15U78tPQ0wS7E8udF/lfjrX/HL/ADvx1rUOxPPngd+GnqaU7MzOnLewd0zDj+uAJYM6LJTPJ02tyXSkBTObOeUYkGQ+POIBmNLzt5ZRcl0JI7SyUzydKSGHPBJ3TMuH77yRuh1VMWlJV44OO0tfrbaZYEq8KSimPeu1gIzbLxpgIzbPaSimPelGWBInHbx2lp9b4CLQkicKkbodBu42RYefHgPqYxy50FcROvPbxytywGJhI8/GsTKT54OOUu20FUxOnOj6iM8+eCdgWDlw7p0597wU5cpK4OaIWnF2pKPMqPuTI8XBe4MmgeNtcOTUcD7kyHBoJR5FtckQtODgcuEkaNOfa8W5mV+qPzg4Br6c6JWABtvSd/eLgZwmBxaEsPUb41SwdBtM4TI4OC1J294O0lZQFcA19eeCL6pT+NwDJAEtK3l5bhgyVvNcdtp7zx44ZnhRdOOB1/2l9K7ZrH18L3zWPpXX/aH1wRPCiacMK8954cduSt5rhgUvLy3GgJJEkxxSwXnfqcAKAzaKAiT1s9s8/C+7BmSEvTiodQYDgbeDxsxOis2XZNZa5gdHwc1lrmF0NmTJXB42YnVtHUGB4lZkhL14MEc/G+zaUBMnpZUikczBNLJeV+ox226+0fnBKhL9g28dbTrwpEZSVwaKHyHaSIyPnr2pGiplXa5UJI07+fnB4Fz8/KCnKlJXaDRAyJRIjIuevfboofM8CIwkjXDW168dsIEP2HBfbp7T+MefMkdv3gtsae8/jbLq/bD94Mit0LKCBy23Qv3LgImTULIxDwJZGZURMOwLIX6l2llLA5VmVvAl1ftj+9tsjX3j84M+Zq7/ALxDlwK0y0pXfB1EvvthhsB7vvgh1k+p+p2wUwjvKzwA3Bk/rfHPxTnv6pdODlSpSY8tBSY8tBkNYEqiOxb9sYFwZHj+uDKpKZB2m2HWT6H6jBLDcL3Pbb0EntgZaAjtQ5cAmGP85B3tgcHNRQCZD5DYCLIJpmM/UME6FwvY9trPMg83LAAOIegzoEYUAcDCAVZRYrLOFFvhKWWXPCKhFE4lK+yxerqUGAUgycIIwoR4lIDiHqssDPMg8zPbGhYD2ffAxGfqFAAySdgKZL5inRzUYJ/zgPa2G5XyE/jBz72moEDAEAZtAd+g23Gkl0C2CN112+OK6zYY8zpubzchvpGKN112+GC40EOg22g9+gpJBzMGoEjby7wFyvkJ/OHqIeRgy5l9DbFP7GD68J2/ykCkRZrOC0UMOs3wtbFunDid2ozrnqcHDaKWXWL4EAZjNf2kDb9eE4Ip/Y25cy+hg6iHmYe/H2wfVFbbyn/ZwdIryDt5pepbBy9/VRGZBGFpm0HXN3aMN8+uZhJzJIrn7+rByS9C23rEeYMHOf8AY2/VFfB34++F2eX44DK6fmbXa+rYJOWvpt6iR6MH2jviVnNPru2H4j1xfaO+DoJHq2wc9fTA7X1baYXX83A7PL88P3vLB9HmbfXvbB9XptE/RvgUP9pxIpme9u0EzfexKX+04BH0b7fq9MHp3tt+jzcH3vPD6V9sEeqfc2z/AFMODp4PVtiGg9Rg5/z1xLB2jd77tYO07tfFz/nrgiGq9Tt6eD0YI/qYNs+ifdwelffDLo2emCD/AMqfxt+vZb84LkQQPO23l8PTAMM0Yn6TCn4MXDdp+DFxwmp+kpZZwcvh6bbkSSPK2D6dlvxtg/8AKn84IdWT0ww+se5gudA+pbbZeUg7XwOTmXkosqENiSI5NKr+0wX03/Y3PzhuygFFllf1jcllnf1irMoBhtpt+wu/jAov7SggAyNhZUZU7ObebBZeF9S+250h6FsEvrHsYY1EvoWcETfANAYySdhJZL5ilz4kcF/57kLbbDLfuLOCfcdkeGLXNNV8UvVwOAamMericA1a1zTVfGKfc90eOC4y/wC9sbb/AMdyNsC58QFEFkPkNgOsgmpm+QcEaiH1LOGVfkCgoszBciVI9S22x0diN8Ermb8b+Ntp5+QYBQRhMqUjw/ES8IdTpUrsInk4ZXZRHNoLxh1euISPD6KorK54LTx8A2wuZvxn5wWOnsQvtuRCMOrbAEBm1CvwBis5ANOjfBNzeQ6P12wDWD7x+cE5sLs3aO0uDlXIxHU4OAVM9oa0GAUicTF9brh+t1xBgFKvApVMdoa4OdiOhxaHaDBy2xmyOzMEg1ge8/jbFzeR6H0wW8kSvQvjiotE9T6YLjXffmbYCSPdMM9J8wNuTg2eOrthW2Vx0z/OL63XD9briX2E10z/ABhycGF4au+2ekeYOGAkD3Xbcaz783BNRaI6v1x2qs+xs4MuJntTSSQd9iSQ0kX7wywRca95cDtFEKEeJUdl64NMD2IVHlw9sX1uuH63XE9iRR5cffBHZOmDShRCgDgbZuda8+JwJF+0M6CCDY0kMXas+JvvgtVd9hYx5yrqWUMRgzBm3Vt0NLrfvBkyUWmr10dtvNvqKQ6JCV3rkZgKeYN/owUBBAWAxfW64frdcQMEjZGnmLf6MlcjMJQHVIQO9X82+o2lpq9NWs2XBoaXS/e3MGb9GAspICspV7jYb2BngnBHkDtmzAHKuYJNeBwTMNCBzNIbc86TlLkbj63XD9bruE5S5lZZbQ5mkamYMAnMEmnE1FmAOW2cE+QGCw3uDLc3ovKuPphKWu4aO2LnHk+tsMLxWPtG8+t1w/W67yV4LH2jDNxjzfW+0oa7Bq4bUXlXD03KARJGng72bmwSx9n17UIBGR2IJCSNKbjk0wnDm+cy27+t1w/W67tw4vnNthE3HJrQAICA2KBVgKlj7Pr3wPB2s3JQAAIDdQEq48+PDwjGf622/QYA1NcEdeeAgYkTqzu/rdcP1uu7IGYE6M4Jrgjpzr6DAXbwjGX63wyEK4cuHdgwSiEownF8CAYk9eVNLZuauJtPcdLg0aUj+is2ClKuktP6UAEGW7+t1w/W67tBIcqUq6W8/pWTDQlf0U+4aXBobWls2NXAqQYk9OWBwnF6AQQCA3kW9S9SkRRITA82kgUGXASJx28s2TVz/UBvfrdcP1uu95/qBrlmyLa5cBKvCnm0kDAAqAStR70L0N9xj1h9b4dJsfi8C+t1w/W6+B0mw+LC4x6x+tt/aboVIq58CCjJZKVOfOC27cCDisVdy8p4CEI58pDqThc+El0JwEIS7l5xo4JOIzu1TjzhtSqy3XBIqZ6S03Q8AuIu9N+Kbm6EwEXF0db7o0p9avKmwjgbDtvywji7rtU6D61OW6IubI6XwNzdAUOIu9d+PBHDAvJpWahgI2LLKAQ/pWRuVRgJWnSzWeQeBdLNZ5hSoyEjucylllIJf02ZKGAmjhgXk08JGFcprnXoG7lgwPnfqfByxZHyv1G7516RUYVyj/Byt19o/Pg87dPafx/mzQZWPb9z4OaLCz7/ALj/ADMpB/LWcOliuEOTQelcz7dK5n26VzPt0rmfbpXM+3SuZ9ulWCHNoHXFlDoVlIH5/wDLhhsB7vtiPORQ1DhQEACwGMGAVZGjzgQNB4YpYbhe57/5cONl6z/MUSTNPefxuZgmS+8fnFLjYesf3/Lu1PkRbFPRAeZuYqJDyMV2oXbNv8o2OInXhSqVzcOY+dLLgQbm64ENZj74QqEzKMjgL14/5MQuQ7F/jFPpc9+R77uPSx78n2xTC5Ds3+f8mFniur9MU5F4vQ/u7jIvN6P8xSs8F1Pr/kZVoS8dOGK38QdRvu7fzJ1C+LQk56caz/x7mQEdTYxJpQPTjQQQbtJIaTWgOnDFcyUDqLP+PDzeV0P7iZfETq23rVmV1Vfyxq1yGelQobZebwuj/P8AHj1se/N98VmAJNB40CQVcTjuw5DuLQrNAmjQ0qU1AZKElJQl3gla7Z9bnvzPb/DWKGdh5KJaTPTYyJLrm/RUFOp9Q3OglfPrTNQ14dKm7rVzlcTpWaR7Eph1PtTPRUPJQk/wYa1m8ves/bYRPuRbbCZm3OstnFgJTlAf3xQgkZrmYEBjrm9KhVxX3tURuMLTiBs1CcKWwtIFlvGlhFzZqJ2QvCriz3QW2848aptXCz8VxdLe9Z+1LLUh3ZF48CnEcaEZtxpIGaDesoPA0omyXGpcI6hwnomN14oWdQ1ksrNJ4F/Iqfr9k7VMbE7GmfNabP7CnZKW3Kp6iLVGj5lQzKhe9ATdalLORVhbC68qlwh0h0JoTmPAMqsLODnr+Km00s1f6KmL9/GHDoULTWZ296z9qOHas5TCO1W8UUsdiTTPPJanZQMisuqtwGRVwshWdH1pVvDX1c7mQoSL4uqldwVQaZx5SCJ71mOM6bczY4/XGvWqJAZxJCvW0egrPcirS4RNZ3cLa9OqTrbzjY170e/rQS+MyqU2frXFaalz0150BNkaLj0p0KNkmKbzCZxXOtEkMrX40l2IjCUUfXFeypo+wo9HSXQBdWiwSiLFc65tkrnSvQyAbpF64bBavW0egr2mxDNX0ylzMwedBl+BX5rK2TRpcPalGClWHxSTUv40bE84pcrNnYBEOZPGv6dXgiIlackGwS0MHeSkqtWDJKZLBMstBICrhEAQFGsyZL0qLjQ5FBBpUmDiCs9f5tIySuyQHc1qW6p5UUwAOBRzORKKNTmlvM9KKITmFTSCAgKQzi9ZSjQqA+AYq+2+r73ppDz86C9JMlJMvjo1bMHWxiE8sFeHF/FKXLg8KEahd/LvHmLgK1lE+udl4zX3j84p1bEHSz/hxIz2IWxXmRK+/wCo2NaBV3G28g7BaOu20yYT2/U4pkY7Ebf4RNcaiOkqy4ckgjvWS2hWfcNQ+KyzzoHzvEJES4lMqcgOTrrV+EAkjWa2lWaQV2woaQjJRFcL/BSQbDtzcWWW+1UcTFyx0pCqSpK7++EqRHf2VR01q4hZuvPFBJuO3M/wYPbSPV+nj5PbSHU+v+DeiRDoLG+yCGdkfNZieXCmx0cCT3rPakG+vRAB0Nn/AANTX7sjeglJYDjSQLmcR+uFG3SAIDbksaQsDQD3031zbn3ZPj4Eb3uh9N5dq1fUaOw1Sy6aYnJksiWatjzFZNLBQEITeSI3tdH6+PhC2Hc3+N3qjR9cVwaKG5iMYaB81mM+RfjdyjbjuLn58cCLIu0qHG7NzwuIFayQHs67w26QhI02Zmamjl1giXNyoHC7KABk3PGwuwu+bblU52WfSoK9R6jv2GizfvrV85bnErsjvi3jYfbr0D+40CpAJWo9meHI660CABYDwOYwALVdFmLydNaRARMxxy+3HoP88bDDZB+ffFll896KX41j008KEqUPSuOWGyr8e3jM1tLtWaSX3xMKTBHWgg+MceR8LBhHHw5uPJJJ7Vktod/F2SxCe/6ncHyHTJ61o7V/T08EZNpUgK9BqPZSQWlSV3F0syvt+o8XfB1L0PzutCCu+TQVh0zOu/lErzCoJEOh767q+joXo/jxcdMp5W7P8YdHqVojV3yXeOTBdXhVneWosdNaXAEqSu7nphPO8VljN5KXPBLvbKBYfvNG1DTh13OawoCBugmfXXerngkrLGLzeJjJsezN9t+BZxjh1FWR658lxKBVAM1rQEH2GtZ1Uk385Nz2Znv4mdXvz/MUPJmmBTSA6nybq1s2PrmlZLicNseeh9ApBn1y/U7k+yyALtC5lyHmKXUrgCIdHFOr34/viYvZk6BbFZeO6G+zUkX64pCJa8em5lg4hw6iix1FDSVP0SuKkRbnJc0iIs5YX7abIEJ8kXxTexB0G3iObSnXhSyy4Uz0VDsoEG1CTgPHoafkaY8w8EgAq5BTUrPD6mlWgQAQbTuoENJnpsIYZK5NK9ePh4PbA7F/jFPhc9+Ri1xF++KLkuDv7m5xfUaLIOOWXTTFHhY9+Tik9uDs3+fDx42udW/xik0vA6H9xxYHhxdDVxehL9Rvb9sw+mKyQ7Bjg0vI6P8AMU+NrHUv8+GWCWtGlTpwxWugB6m7uAoFmbSgT4nsnd8IcY67m10pPUXMWjQr040Mknhb3xJ1G2KxNjnpxrLHxkiKjZwt9WDe6ACPqa1kd2THnVibPHThivfMHULeFiJvN6H9xSkcF1frjaI4bZdWp89D6Bv7I45nqFAk67Z9NccJHFdT6Ypibxej/PCwu2Pdm4pkLh7FvnDmsQSmVuU+w0pVKqrmvgUBETJKZl5QPU1rJagmGJCwezb4xSu3PdmeEyUCWs0ZvNhBQGbRgcAevHAptK499KyWO5AOZuAqbp0EqewLqVnV2Dc5xagCjqEz6a4DQ4gdeFIpHMw5pxeSslAk8HFTAeZikonyIvtAoEqQFPaNVm0cuS6rnuVZOoL9BUNB/oO28GMihtB4ZZddNyCRDJKUlZAcnXWrwIBJHbBRHkTfFNTIeR4OIbmvtH5xScZJ6v8ANmaUNQ/FSSA5B87nI7sFa8yfdNABAQGEGAVmNWJ56/Q0rNYgEbnMc0gTqJPbXYJfHfb+4pkuSe0/jweffwX7nE8gixZjqVKuuecdCnJtKkruTkNYs+mtWg1mbkyXdIQs0Ay66bky4LicKkCjkkd2tJeFiWe7iz7+S/ceCzSCu1ZraXff28QAStWRZgcnXWgQAsBw3aMSWR41ZFmLzdNKt4gQhN/ktodqySCO/gYIbofz7b+dQGRt21q8Et+i2sKREWfIbd9N/JDdP8e/gYBc7uWPbepDaAJWgM25gaBhNAEB4FyawRLNcyeps9KSoEIQm9kFyuxZ9/A3dkdsW3kRhHQPms2vzL8eFswPIKu0Doe+m8u7C7Zt4A0ON3UiK63d0ZclgONXB5gM2gRAgCA8OGE0ISNBkbmpt3UzVIQhN0gCyXKMDhd2/hC2HYXfxushzSDOsB9tPF5N7kXzUslnQ99N0idztzXPzvFwdmsU26gFDFp6qOIBOBjPcsFQByeNZZQkfNf1vzX9b81/W/Nf1vzX9b81/W/Nf1vzX9b81/W/Nf1vzX9b81/W/Nf1vzX9b81/W/Nf1vzX9b81/W/Nf1vzX9b81/W/Nf1vzX9b81/W/Nf1vzX9b81/W/Nf1vzRwmhQj60BILyzcuZEgNmmLT1UbNQGgcnZLO4sYBmZc2uW6+wP9fnuvuCrGAZmfMxW/P7lT32ynH/Ze+2Q4Vb8fuWBQFbBSkvA+T/bVl4HzUIglx2ugjzhb/ddBPlC21gchnyf91kcljyNv2+T/u/V5G37fJ/3fq8jb9vk/wC79Xkbft8n/d+ryNqUJNHlx/3UoQ6PLhtQSG5UPV1LCdKRCvX/ALLzzzzzzzzzzzzzzzzzzzzzzzzzzzzzzzzzzzzzzzzzzzzzzzzzzzzzzzwJV66j6upZXrQAQWP/AAL/2gAIAQEAAAAQ/wD/AP8A/wD/AP8A/wD/AP8Ax/8A/wD/AP8A8/8A/wDP/wD/AP8A/wDz/wD/AA//AP8A/wD/APD/AP8AD/8A/wD/AP8A8P8A/gf/AP8A/wD/AOB//C9//wD/AP78P/46P/8A/wD8XH/8GH//AP8A/hg//DB//wD/AP4MP/B4f/8A/wD+Hg/w8Hf/AP8A7g8P4fBt/wD/ALYPh/Dg8/8A/wDPBw/hw+P/AP8Ax8OHwMHh/b+HgwPg48PkH8PHB8ODg+AHwcHD48eD4APB48fhwwvAA9DDh+ODj+AD8cHHw4OP4AfxwcPBg4/AA/HBg+HHj+AH8eODwYMD4AfAwYPC4YPwD8GHQ+DDg/w/wcMH4OPD+B/DxwfgwMD4HwMDB/FQ8fgfDwqP4OHt+B+3hwf48Pf4H+8PH/hwf/gf/g4f+FAf+B/8Ch/4PD/4H/w8H/gt3/gf+7Qf/wAXf/gf/uj/AP4H/wD4H/8A4H/+i/8A/D//ANF//wAH/wCAAf8A4P8A/wDD/AAAf8P/AP8Az/wAAD/z/wD/AP8A/gAAf/8A/wD/AP8A/AAAP/8A/wD/AP8A+AfgH/8A/wD/AP8A+A/wH/8A/wD/AP8A/A/wP/8A/wD/AP8A/B/4P/8A/wD/AP8A+A/wH/8A/wD/AP8A+B/4H/8A/wD/AP8A8D/8D/8A/wD/AP8A4B/4B/8A/wD/AP8A4F/6B/8A/wD/AP8A8H/+z/8A/wD/AP8A8F/9T/8A/wD/AP8AQB/3g/8A/wD/APxk3Parf/8A/wD/ACoD+cR//wD/AP51/wDi+v8A/wD/AP03/mD9z/8A/wD+5lNkAQ//AP8A/wCBwAUB/wD/AP8A/wCBoAOB/wD/AP8A/wBAwAIC/wD/AP8A/wAAgAGA/wD/AP8A/wAAAAAA/wD/AP8A/wAAAgAA/wD/AP8A/wAAD+AA/wD/AP8A/wAAD+gA/wD/AP8A/wAAP/wA/wD/AP8A/gD/APwAf/8A/wD8AP8A/gA//wD/AP4G/wD/AIB//wD/APwD/wD/AMA//wD/APgL/wD/ANAf/wD/APwF/wD/AOA//wD/APgA/wD/AIAf/wD/APgAv/gAH/8A/wD0AD/0AC//AP8A8AAX6AAP/wD/APAgB8AMD/8A/wD4EAHAOB//AP8A6BoAAFgX/wD/APB+gAH+D/8A/wDwfwAA/g//AP8A0H+gA/4L/wD/AMA/gAH8A/8A/wDg/wCAAf8AB/8A/wDgfAAAfgf/AP8A4PQDwB8H/wD/AMHYBaAbg/8A/wCBwAPwBQH/AP8AwIAP8AMD/wD/AEAAX/oAAv8A/wAAAf8A/wAAAP8A/wCABP8A/wCgAf8A/wCAA/8A/wDQAf8A/wAAJ/8A/wDkAP8A/gA//wD/APwAf/cAgAAAAgBv4AAAAAAAAAfwAAAAAAAAD4AAAAAAAAABgAAAAAAAAAGAAAAAAAAAA4AAAAAAAAADgAAAAAAAAAOAAAAAAAAAA4AAAAAAAAADwAAAAAAAAAOwAAAAAAAADf8A/wD/AP8A/wD/AP8A/wD/AP8A/wD/AP8A/wD/AP8A/8QALBABAAECBAQHAQEBAQEBAAAAAREAITFBUWEgcYGhEDBAkbHB8NFQ4fFgcP/aAAgBAQABPxD/AOJKpUnBT8jGEh0SGra7YUuhJ7qEQRkcE/x1AVYDOra7YUOjI7qPkawEeqTRVKk5PRMUChYFSJeJbB3F2w8UWsyZQJU5kYco/wAdFpMmESQORGPOPGBLxLZOwO+FEUChYPobg1/LH+N3pwPukJGdpH+O+yyk5XkcFga/ln+3Z6+gwGtFL4LsXA6vC/1FeWk7yx0H/HP6mHLS94Z6Jw4jSgl8E3Jg9HzpiLQzeQ3WCn/qwm2UNgtwW+8GgzWgF6HQwkG7X1of446CEA2Y+9SrfeHQZDUS/A/8WE2zlslqiItDN5rcZPNKTZQraXR3XgQAVMAYtAgQZC+KHfN35eJHchANVaOiSFT3mB6UAlMJtdBbd6GSTD1qwS4UAlMJsdFLd6OpJAp7xIdaI7kIBqJ4ogSYC+KvfM350iAgYRxOAoNlCtpdHcPMjSmTOS9rvSlFsKSpurwScixFsrmYuceKVCLQAurUNKRYke9sZeIX2bgoJk5kYe3rQvsWBSTByIx9vGWlIsyfa3M6CoRaQNxPGDgWItncjFzngUWQpCi4lRpRInNe9nr5dhIMTZMXSx0eCPMmkM1sEvSiqjFi6zW6y+Moy0rgYn2ehwLGXhqD1qxl46q4IRl5XExfsdTxKus2LrIbjDU+ZNIZDZIevBYSBM2DF1udTynfJoHMsPdpCrjsVWV4LeskTAtjm26Pi3KZIz8Ohi8qfKlKVGV4CQoJ7IkOrB61kKCeyJToycB5UpQgyNNyCQMvHo4nPxv6wRMW3OTbqcCFTDYiMjTvkUBkWHueTg6iAc2xekupwAZYT0Z9BLRhy0yAjxedwwNv75BscA3XgXRgKP2HEdM2MD/vrT9l1HTdnB/5S3XgXBhOB53BI2/vsOz4mHbTMSKAy8noy6iHgwdBAuZYnSXR8gLCyOQY0vzOguBsPYODBCZUzXZ0g6vjp4HxAv0EvOKVWVl4Dx2BMMHUwOuvA1JsbJzJJQl0sKVyIL6VSaWRC5kkoqzYXTkQXgPDYExwdDB6cAoyMNa+B26Fuoh5z44ITKGS7eknQ4F+YUBxdh7LQWBkMxw41jMocZteAMtUgDNo4kKDO4vd7eKSycA2Vd+8HTgAlILy7r2tzSh8LwICA8W8AS8LUZRm9KVRFW6udCiIwmCURaQ1OSbMcnJ9GxaS1GabIM3NpVVWVxWhQREuJlTeAJeRqM5yenivheBIQlASsl5917W5jwJDJwLYF37ydfF4lKTK4vc70ZaJCOTwLOZS4zacZNawEHgBW7fyxTvB18VaIFOcIHVSksvuzVleAoMSVMRb3Zeh4llSLxn8Bf2p16kJVcV8ULAExEZGsYNHMH79DhBo5o/VISQZiqyvia9SEImCU2VAHGPwF/fxKTElDEX9mHq8CWTzZIyNK0QKMoQOiPiVq38sV7ydOCK1kIvGESSS7wjfueAsRSzxCRi0D94j24CBbtMhbvQlo4ZiZAg8XnRpjZR7z2DgaeSRkLd5BL0rtyQBB8eh7ckCQ/NJPZJzBs8kh68D20ZrYV7T2XxOG4maIaIFu1zBs9SHgScSg/vA+/iWIpZwBEsEu8Y27DieiHrYJqc0Gc1L98BBSAkmu3aPF5cLN4+SHTgOW5Umz8Pd49VN7BHoS9KVSqq3V4LbBQF9Q3XYNeN0jYG75dTWfnCe2QfNR0bRDuNT0bVDsFZlTK9hke1Rirke0YdC8dtggC+s7rsunAKhFEuJX0pvK9SHr4nDcqDZ+Xs4Hhws3j5IdfEghIQTXftPBOaDaKH6p6JetknhdogWNbHzwYQpPNYoE4DhsH14I7Ck6BS/zLeaeAIobNSfg7vG4bBHalyB9+A2GyW4XtbrQWw8OAgOFJqIgBmtGFa+xN/6fFIiKmVcXhesUiQjTIYl+/Avib0AHCsg4I8IW08OQhKNhuhuF7W6cFg2GO1DmJ7eITQ2aE/B2cC/xLeQaR2RB1HwBOU47h91jCl8xjgdoqWdbnxwxJB5nicAkARyOgy/HigykkMlIO7wOClAOdC3BG7gHxb680vjgKzfVMl0c1DpwqBLYp8RPHYMVqMvfyVGs9cTA5n2b68RXb6hmunkideBvvzS+fEW5I3dQU4KERN+BFlZI5oQ9zxIAAcBosnzwTJJ5HgcJR8J3V/vACmRyOHHd8YKYS95K9h4JKJDo6QXt4ip/VH6pHZUlzXgKCL7wvnhnxeqQxfEh18oYZKlpUY3ivcy3M4Sgg+0L44EdgQTJKET+KP34wUQHA0knbgkplb2hp2TxBRA5nJnuPAq+Ebo/wA4VMs+xB98FpMR7o8fxzE4COknvSO/jETCo6j7cH/sPA+6EOBA2DhACRHKyT3Y6eXGcKthJ2TrwiHKkbJX/kPI+uCYmUV1P08SOEHvSe/B+OanjaTEeyOBXLHuQfXD1p9+CepvfxoNQ3v4Ce5R2ffipD9x8cBuEjMdHF/d1ny8QPt3iMwgIjq4FI/uPnxJ5mHZ9cEmgL2+J6O9uC60+/DN78zwVB6+ON7T5PAoDUPE0LJn28BOYR9nEDEBp1+WDEhh08RGYR93A0rNj3+KkNA4Bvah2+Kk9ODG9+Z4bbPBfxbE8WNLDPXgob/0/wCHighL7U3BfuJN5GsSThQkOcQ/ZfLAkuUQ/YOHAlq/c3Pm+BFCH3pvGG/8P+nAzuCx08b8W1OBtnhth8aef/HBPfjAYwxrlLwBMXDdv+njHYqcGsk78CALIyU60jHNE954ZVmNDBMt6ydTy4VmNTEMs6wdHhdaAjmKO8UiK6svBPYi8OsF7+JEWDdv+HA7hhXKTxI74IFh8KeX/XCp5ivJPsOCW4C3Yv28YYkJbs+nAx8DndD9U20sGySeBGpCE2o2ISDYUdo4CWfAP0YjpwhiW5rM3MaZEjsbNgPvfyWRA7GxYr63oMQ3JZu7jwkMeAfowHXgNiVg2RPaaI1AQG3g20MGwS0x8rndL98EsQFm7ft4w3IS7E+nAr5gvIPoeGEYGOl8B4GZQgvIfqmHkQdnwI8UY6IfdHBB1uMPAavuIfoHi6Rwr+jAevAZ2EZbS3+9uvFazJES6Dqsyheq5X1xmcavVdra4yKtZgqIdA0GRxGdhWG0t/vbpwOE9I/oxXp4mL7iH6LwHBJ1usFEeAMNAPrwYeFJ2KZlKi8x++CUZGut8E4SHSRvMKECERNzgG6k8zYl3PFgPYQ/ZeDFgAtn+Hu8duKcZW+r04HDKFGIlENRM0Ax5JfifK7ysuqxGsQx2lhAn24cQx2hgBj3o8rvC66rFeIhoLmlGPIL04ZSpxV4N+KcYW+718cWFC2P6ezgZD2EP2DxG6k8xYh3eAQJQA3aMdBG8g4ohgj6Ls8B4ee25+TxNegk1PofZwdMsvDXow9KGSTDwF60GaISjrZUbPv1COBZoEm6x3PiaBwJ6RCROL9bXw/raeJHAnoAJVpZpFm673fiOAa2RCy79AmhelBkCA8Fglwrpll4Y9WXrwNegl1foPd4nh57bn5eBIMEfVdjjeNJpvx8PAMoN6af4J18Vs6cY4sdSTrwlGJjzgs9SHxWSoALy26j7O3Co5HOiB7EOnF+tr4f1tPEq5HGqV72deFYKgBeW/UPY38SjEx5wXehLwrZ05xxY6EHTxNpNqa/6B04Hx0pvx8HGYplq/ouPTgYSOcimpnRvYT4AgSJCOdGxEza3PZh04DsglW39pjr4rKEdIhCNDCRt1e4wemvAgSZmSg9wHrxfra+H9bTxIEiZmJPYJ6cCwgZdXucDrpQyhHQAQB4ndBKNv7RHTgdjYm0ue7DrQAEAQBl4TOjewmmEnnIp4GaJev6LL14yxFdOUkTTm3WMEYeC9VDLi3j2ZPbxSSmtl1senyeAUERGRMqieTMxZ3TuPixIiMS6/JwSkew34+oMOTDR5AYFKvIpoXhCNtPkvQWDgEAGAcX62vh/W08QWDoEiOI00L1hO2HwXp8AMKhHk0D2m/H1VjyJaYmROIdfkYB4xfBsi9nZO6UqiKrKufAkFNfLjY9fgeNqqGTEvPuwe/A5s1jFWCixAdGcET5CWeCYWwB8PXgvPnHsYD0YaESS54HAQTNENB2reTGv1DglxVk4mJzMTcowAcCR8UAgEcmmLximPkfra+H9bT5BE4wTWgAAAMjxcAHAgKhxV04GBzcXd4A7RtJhX6BRwAEyBB4KBLYq8+ceziPVl4Eu9E0tgD5enktMjsl0Fvy6cMYgEjcB3DuPi0wogXzPtynh1wYrNlzPs9fM/W18P62nzNcGKxZcj7vThaIUQL5H25R4xiAwNwnYO6cLTI7pcRb8uvkmWAiOCUdESFncPa504GZSx5CbdS/KaMsCRGRPBGQEIlkpD0wWDxVyy24BhkpaV9MVWXWJ8v9bXw/rafLWlbTEUl0maWWXgQ9EVg8Qc89qBkBABYPAywJVYAp2VseSG/UvyjgeiYCyuPvY60ZYAAYB5TXkERdMHSz78I33clfK64OUeI5gCY5SwP2E07OVaDIaiX4HtOMxJh2Ty/1tfD+tp8t7RhMWJdh4HZwrQZrQC9DmIJjhbE/YR4jbdyV87rg5TwtaQTFwwdbvt5Z32kEiOJTKJnJqcOZhwQ3LGgzWyWoWbiG44m4+MfJ5Y1LTRyabQ0RAO44JuUCAKtgM6MpImWYEYmpccqBAAIAwDy/1tfD+tp8tEAohHBKcpImW4kYuhMM6RQESyOVNoaIkDdcA3aj5PPGpaaub4izMQ3XA3WpblrQZDYLcDKJjJgcObhR3ygEAGB5gGDOmf8ASdwpGyIRIR4B6gMVLIcs9qASRaQOCeLhWyh9mo0Hg2Ooeb+tr4f1tPmzoPFs9UowLZQ+x4oJItADFaXiIwUs1zy24EbIgAlWhMCNM7Oyd187DxDJZs9j5c+Frg0niZnRy0beh/W18P62n0LXBpPAyOhnq24cfEMliz3Ply88VzSdHM3MaPxCxrTWeeSa8ANFEiYjUIRh63j7nl4vfDA6tPwjiB8K/Q/lfofyv0P5RLTfwRo8JLXfwAq1+h/K/Q/lfofyj6TwA+VYLfDB6nlyhGHpaPu0jRRKuK8B+ASNaa7zyDWhXFB0M3dx9AWMg/23dg/8pcKSLicDUlnMSbDv5QlgsTj8A70kLMuh6GD78+SFpdD0cH3SkwSZw+RdvKakMZizIduAcaSLq0WMAf2zZgf99FahoZGqddHpSQEhNHvQKwEtG4dLiYEYmpzoAAACwGXkiYXdkBK0l5HHbBgdO8+hS8BhtkxOn1QmBzZiSPkoIII2Rzp3DpcXEjF0OVIjCQ0kBITT7Vaho5middXp6SHMYEbyko4H3Jw5MW8s4tTUlw+jDm1NSXB5Y8T7s482KlzGJO84P8G/o0n0Yv6NJ/zRbcSFyMPoy+4krkYP8wY+G3Qv1TqSw6qy8QMH2nK7zCv/AElP/SU/9JT/ANJT/wBJT/0lEYPpOVzmnE6kMOiMlMfJboH7/wAu2xyi/hDrxaBPAwC5qFBfUAgAwA4wvqgSI4iVoE8DEDkicV9jlF/CHT/LuXDW7B27uLHeabH9PJY7zTZ/hxLFw1uw9uz/AC4kgL2F8T14rlizauTtHk2bFi1cvaeKZID7i+Z6f5TiR7efaKcuUVdXhIZS8bsL7UYMGZkBB5JgyZuYkNEMjedmB9uFy4QR0acSfbz7T/k2qhOHfd+7ivbt+b+h6eXa3L8n8D14r1SjLtu/Z/k3IhwnPl7HEsVCXZv3Xt5dypS7Nu49+KxEuE58nb/IKBVgLrTTsq8tjsDimiAF13z5cUSAum+OJp2Feex2LQgEZG4/48dSNfou8QIJOrU9g0BBAEB5YMEiQlIgg6tT2JxT1I1+i5/jxjST2/6PbihbUPuEvZfNhFi02J8BRcB75yq4RGj/ANVbynBMHxjGgnt/1e/+Pe2D838B04mYldZCOhDpNG/UQkDgj5ZcQMLyxm1b0t1w8ByCKjLplo0q7jIAuPxSickrxtTJ+T+g6/4bqCMJVyrDMTEyZ+CUQhtAJaTZbj0VTtx35Hfrh5csKNQUyC6ZHx5GFHxDKRlNxi2OrWbaVWGgwDYo0UBBedqQAb8M1J3jwLhu07m0K3Wx4pslh6CL2pKJI2okn+CmwiaUtKsD8x8DpFrOb+i+3i4gOZ4gqAV2pFQiO/gpKrNEmiZmzQ+CRgJzzbNt6jCDmM0kwn3oRJGTxPwlpXNBivKpYpZTAbpg2PehPkWspeLaUhQIDG9OIRzKiuwb4/8AadBxkKXikjdoSgFdqRGEhoBInkVOPuWfoD18f/SoRJLnrJEMJiNX+VLdAZMhTNzMOVMD8xpsqJsOFsVqOEnoWBAHNfasY9Ryq4YLQyvvgUYd2GALpUYrm/MUyKFLtpWsABB7rnWsADD7JnTEIJXTSlBQpTTSgVNsEQHvm0Ei2DAd2CbNOCASEJ0VcokkxxbROs71iTSZPI80utsX5VFVm2AG02KIospEUZ0WUp4DnNqhYapOpgghm2VAxJkpnkBgwloJSBshjWuCBB7rnRYOewPuYlG5lhQOlQTCGIutZragEBsk1iWIib5H9qdXuHaiGGmC0nLX1lwde4q/FEyhL28BYH7jV0dT5VGzMVov3WrQxIbTUqAORmGVJMeDPpzpjgHg8ii+mMTyCng4NjNSVp4mZZyQkawlxgOSVaxmLTQmIobszWeCC7RNE2YWEkFkwTZpveyaMN7MdqWqpckbyXvTVismXWmhGBV3t4fVT9zWjRBqYOdfk2r8TWrTYwe7TgbJI1ZpU1SxbBMKTBLBFtSR8lpxcE9QrRvHeKVlaS64FAgMUC6yy5VcsTN125esQsWItOhMjRoSbwinRq8zCrckiXlpQLpgANwpT4lGxLSRyubqaQrDE6TnQBaGC8v5TmGYDCo4/wCQrhrQhs8GqYntTCQrhYGE6NGygESJDXZPjwNg/TGu6fFdt8CvxNGjAkmABSRJMiATnNXfjkNJw8EPSg2Xkac3RJSHOKlUsZ3iAr8m1fia12fzr9G9dl+K/e0puYZNyVLYJE53KxcM1nuVf6A+qlRBhZVqwgV+ia+qODgmDUOB7p2pbzacYZXrWBFRQTgEmWXsNKosVl8BQWEkDrX/AI2oY1HKgcaiDAWR2ChGTKCOSQ0mFhCsyON6OZ9oVp80eQYRKgEgGkCmj8FQhoVgchlUt2zklpNGCERJFaI8GcOlZ/APhZTchMBvWADQkUIQUmF/2hei6GdgFjejTMGxDJWZvVhXRJHJoC48CaUSgsYRpHsICSYCjOhxIQ86e+uj7J2FTKkS4jg1Dl0T+acCkROcq07/ANlG/wDQv6ff13uLhF8A+/FAJB2JwelMkbLdajiO5WK0Yw9mZudfM1BVg/hvUVCxBlOTi3bUAEFio8bDA4h7i4RfAnt/h4prGz9heKGwPqduzwaIS9CiOuFMSxh5arfXxGDdB8YbA+p37uJimsbP2R/wmxgH5gx3in2LI5rd4TZWFtUH3QBQY7BB8Ujb+Nnm6N3vTdvI1N11bvbzEguIQjqNW5xGnk8m+POjs/Dgc6AKTHUSH5oyUlbVJ9cL7BkMkuU2Mi/NCe8/4NteBaj+AdeJWwkAklTeh0LXsRj5mpKKkI3Xz79yl69DJ3KvKgC6xsOXtTR3EyBwCNlF4r68C0X9E6f4N2qPb8/B7vX2ao9vz8Ps/wAFb2UfosHnSQGRN2BmtihHXXyBaGdk+xAYnnFL62I5POW9lH6LL/gBOR1lPkSlVVZXzHeDByrQKKeEBY5jLkvrUYNSAaAeMNMEWjbOZs2psqOVGxzdvNFERhKC+Okp8g+vtpHROXL3fMCVk046/RjUUjHfAcnfiP8A/dwaI0Ma7U9xk7NuVJQGVI3HzL6T0Tlydz15p1iE7zs+zyyJywcDsODdowZWPF1XN3fJX2eFDZdGzWLOwRdp1bPfy2jWITb+Qe71yIgSjkFIzMNzNu0eS9NrDYNVwDdok44QS+xxbvTzI8akA3GgJ4TdxzOPJ96f/wBLhNEfJRiJbkb9ppERIQzH1tzRW6L5np5IfIuYaw588KJHXVLrmfHnhiAgToGTnV+Ipc9TJ2fJsaK3VfE9fW4AQGzB3Xtx3JqiDYou2NaefzbFudGXWAgDQPQjN+J5UVE8qSO/JtjzpMLQCEdE48AIDZh7j39beE53BPcvbiFoZhwlRQcUQCWzNDY9KwTxkCCYc51xpEUcTitCc7knuHv6xgocdAS/FOwsuapfvikv9ihue1NbwX4bQyfSzGVVlSQaAY3xpVVcXidhIc1Q/VMFLjqCT59XN4Hc679nkMda0rOgwTnQDkQFQm5xbPvWPoYEjEA1VqY3/wAuPl9qnrEQjVXyJvA7nXbu9WFw3BPueUskMDAtzibPvWLsaULoMR895FUtH+Ju0yuwUh0dTd8oTHck+x6tYkXkGHvPlhFVgXHTAShXJgEDbmDs9/MCRcnANVo5lxKuVcW7bnUwozEc/LuSLyDB3j1TOgznYtPLK21Vl80w2KGQ2XBs+9YkpFXWgxHZ8mAuLPPsabtqjbDNq3PN2815YG2iMlM6JONg+ptOEj8MIdfPEp7YhaYCUKhlsUb2ez34jrFKIA3qZoJVdvk7c6Q1szy/tPPvOMj8MIdPUnKIwbsHbu4hJoicGmq7FMk3KVDVRMbk+SKMjDQhYKTIc3Bs33rNQW3WiYjs+KWWGYXTM54Vd2dusM7lh5LnclymgFGyLMUe4Dler38VmJBk8RwiEG7D27PU3wBDpvjiNvK/dzXSDpSSQ001cgITcMW57VlChNhqsE3PJF8/MtMBomA4tL0R+aahyJz5AA96TpV5kbGhseTNiNFpznN2L0bt8C5g5O/hhoLbv6CcVsAQ6759QKDD0KjuSkZJVldeEJp6DUHtQUAhGQEHioGDahtcQaIIl8M7XyW5eiTC0AlXQKEawUjmcm2PKif/AGcHiFAoTmJDQTR0GKHbhQkhGR0oQGXoVHcPp7bSQHfd+I0wtnIX9F6cKCIkjlSc2TAhORi3LbViwLHE1HBNzzx7ycuOv0Y1HsHwk5N8eJohLMWR/AevFfaCC7bv6cM9EBNsd24ls6W7f9Xtxqb35Ta4hT8AM4b7XMty82/Lwexb6O9GHiII5uru8d86U7f9HvxDHTATbDdvTAZIAldKVBnqKjsDilCBr9F3yGUFBhYXnaKb2QL5kdvLKLodiGO3kwhA1+i5xKAx1FR2LQEkiSOvpYwgMdN88TX0KdrPYNAAAgLHGcSrxOhq7FHwCssf4tj8eZgyUJEAFSfwd+dDRiZI/wCO3GgESRslNbQp3s9icU4SEOu+PS2S1Ds27j24lm9YtLZ2ONFieQPXK5Y0lhjkB0+zHzwC3Z0dPsxoxsGrdXk2x41i8Ytbb2eJdLEOzfuvf0t/QxGr7GOnFbSCutp3OEWz5jgq4qyyPqN8eVPWKUSrq+hTC0ohHUaUW2GnlMm+POj1fM8PDfSSpled3iW9HE6PsI6+kU2FtoBLSGqzncvCZaoAGbQKR7efaeAbDSuQ5Lyd9qlLkyx7Gbu38nB1vMg1XAN2jigTKLnEHdqDJpkL8pk702GIhk8mfgbPHua7l6D5HnSzXk78AKT7efaKMtERHJ4UFQnG4aU2RtqJJ6OzYvOcPaeK2iAOq+PGGoJgN1pRm8JHKOBu35Uki7mVqr5J8TJbI0bHnhzoQwYt11zPjxQEBlV2fptQemPhhzb4eS5cZVCOo02uBaeTyb486J/9nDxvoiDovniu2LznB2j0eWtScj+nEGch3uy9u7wTQSDznOjd70wYiWp/Vu+StGIkl/hvQBbIN1319udAzAgAgDhCGkAkTRKPLeKQ2/NthypsnxPDyTiVpvOcZO5egrEZ07vJ328BTjqlyduziy3qbP8AD0Z4EooNl+7iAYnIwSYktm2psW4OdIknd9qkSMQjVXyZaBfhhzdqBEAY1d36LeTDNBFo2zmbNqcMzeo2HN28lJFycK1GgIowdyZW5rPOhVKXITimawe3E8iE0my3Z6I7IStoF+qYKXHVUvz564blyOVFnsFp5vNthzo3wwcA0DyzWDByDRKOxoW93m2w5UuH5cjl57BQ46Kk+KckYW0A/fobZ3KxZ7F7+eEnaEOgZuVWrNBx6mRsefD2CDx1szZtT6boYhsc3bfz743KQZ7B7ehw4hW6+Be/mz1CIRoBRGXLOOY+D3qHFBANAPQn/wChyGiNARLnuquHJtyqVoJiNx83DiFbr4B7ehcObftaL18zB5gscnVsUCsaDDtGjY7+lQQlBQ6uZs0zs8BdoDNz8x04t+1qPT0DMRDchbvFI6rUc18pJFg8qcgorDJWOYMORflUa4TgbB6eDFBANEaGi37uczDk+9N9UoRoj5SOqxDJKZiZbmL958+xtCP0Ye7yppZotOc5uxejkIZwbHJ339WwDFBA5mjZpVYQKXoamz38ojKRPGSTlMOnmYasRB70ZeWi7zd9qc7eTe8lHyELDBKyt7HkiOQrIbGL0FvYOB61w4cOHDhw4cOHDhw4cOHDhw4cOHDhw4cOEPViA0RpNt0ScolWOvkynxcJKNwTBKM7eTe8tOXlou8XPasNWIh9vIgXIBsOS5G2LSljNuwaYB/riWM32Q0wGoFyBbDmuZticTO469c2aHzBTmfsyp/2TM/ZhRROw49ciaPzJwM2AlXIpIKumEx6svX/AG0gi6ZTHow9KdsBImZ43mhm7+i/7t5oZu/oHi1kDbob/dYyRtkt49v/AN27r43b/wDdu6+N2/8A3buvjdv/AN27r4yJygYoE7Fen+6idoWIgOwHr4ogEIRLJT0ELQnObZNsqErWEl7hX5b6r8t9V+W+q/LfVflvqvy31X5b6r8t9V+W+q/LfVflvqvy31X5b6r8t9V+W+q/LfVflvqvy31X5b6r8t9V+W+q/LfVflvqvy31X5b6r8t9V+W+q/LfVflvqvy31X5b6r8t9V+W+q/LfVflvqvy31X5b6r8t9V+W+q/LfVflvqvy31X5b6r8t9V+W+q/LfVflvqvy31X5b6r8t9V+W+q/LfVflvqvy31X5b6r8t9UpWsBD3ShpIChOUywbZ0CAAgAsH/wCBf//Z;" vertex="1" parent="1">
          <mxGeometry x="600" y="40" width="79.65" height="140" as="geometry" />
        </mxCell>
      </root>
    </mxGraphModel>
  </diagram>
</mxfile>
